<?xml version="1.0" encoding="UTF-8" standalone="no"?><!DOCTYPE svg PUBLIC "-//W3C//DTD SVG 1.1//EN" "http://www.w3.org/Graphics/SVG/1.1/DTD/svg11.dtd"><svg width="100%" height="100%" viewBox="0 0 804 318" version="1.1" xmlns="http://www.w3.org/2000/svg" xmlns:xlink="http://www.w3.org/1999/xlink" xml:space="preserve" xmlns:serif="http://www.serif.com/" style="fill-rule:evenodd;clip-rule:evenodd;stroke-linejoin:round;stroke-miterlimit:2;"><text x="401.055px" y="106.327px" style="font-family:'FuturaStd-Medium', 'Futura Std', sans-serif;font-weight:500;font-size:47.917px;">C<tspan x="444.708px 496.362px 549.118px 584.816px 630.48px 680.074px 703.17px " y="106.327px 106.327px 106.327px 106.327px 106.327px 106.327px 106.327px ">OMPAÑÍA</tspan></text><text x="617.012px" y="211.526px" style="font-family:'FuturaStd-Bold', 'Futura Std', sans-serif;font-weight:700;font-size:50px;">U<tspan x="687.912px 758.962px " y="211.526px 211.526px ">AQ</tspan></text><text x="453.935px" y="159.357px" style="font-family:'FuturaStd-Bold', 'Futura Std', sans-serif;font-weight:700;font-size:50px;">F<tspan x="483.035px 529.385px 556.135px 596.035px 622.785px 669.135px 705.135px 723.335px 758.335px " y="159.357px 159.357px 159.357px 159.357px 159.357px 159.357px 159.357px 159.357px 159.357px ">OLKLÓRICA</tspan></text><g id="Logo"><path d="M209.233,189.83l-2.304,-0.412c-5.85,-1.279 -11.604,-2.275 -17.65,-3.046l-3.879,-0.646l0.417,-2.946c10.666,1.196 18.437,2.838 24.016,4.134l-0.6,2.916Z" style="fill:#a74a76;fill-rule:nonzero;"/><path d="M215.809,190.774l-0.442,-0.133c-1.208,-0.367 -2.446,-0.721 -3.721,-1.075c-0.375,-0.059 -0.775,-0.167 -1.179,-0.284c-3.037,-0.858 -12.267,-3.475 -29.192,-5.041l-0.895,-0.325l-8.605,-3.709l9.263,0.825c17.083,1.584 26.479,4.242 29.562,5.113c0.071,0.021 0.134,0.037 0.2,0.054l0.025,-0.029l0.938,0.254c1.575,0.433 3.079,0.875 4.542,1.329l2.787,0.859l-3.283,2.162Z" style="fill:#a74a76;fill-rule:nonzero;"/><path d="M212.985,189.191c-2.358,-0.804 -4.867,-1.562 -7.454,-2.241c-0.367,-0.046 -0.763,-0.155 -1.163,-0.267c-2.766,-0.763 -11.179,-3.092 -27.291,-4.054l-1.296,-0.279l-7.475,-3.313l7.842,0.333c16.25,0.925 24.945,3.242 27.975,4.071l0.016,-0.037l1.234,0.321c2.804,0.729 5.441,1.525 8.05,2.425l0.675,0.287l-1.113,2.754Z" style="fill:#a74a76;fill-rule:nonzero;"/><path d="M204.973,185.757c-2.288,-0.737 -4.775,-1.417 -7.408,-2.012c-0.417,-0.021 -0.85,-0.13 -1.271,-0.23c-2.713,-0.662 -10.963,-2.704 -27.542,-2.42l-0.142,-0l-1.204,-0.25l-8.35,-2.734l8.55,-0.246c17.079,-0.337 25.621,1.73 28.425,2.405c0.259,0.058 0.463,0.112 0.609,0.145l0.641,0.075c2.734,0.609 5.338,1.313 7.754,2.08l0.963,0.395l-1.025,2.792Z" style="fill:#a74a76;fill-rule:nonzero;"/><path d="M193.987,181.224c-1.813,-0.416 -3.784,-0.779 -5.867,-1.075c-0.412,0.021 -0.837,-0.054 -1.254,-0.125c-2.354,-0.408 -9.521,-1.646 -24.825,-0.058l-0.196,0.025l-1.146,-0.208l-8.516,-1.971l8.429,-1.013c15.546,-1.708 23.062,-0.5 25.571,-0.091l0.029,-0.05l1.016,0.137c2.288,0.308 4.434,0.688 6.388,1.121l1.233,0.467l-0.862,2.841Z" style="fill:#a74a76;fill-rule:nonzero;"/><path d="M155.99,179.112l-1.462,-0.22l-7.092,-1.288l7,-1.629c12.812,-2.963 18.558,-2.879 20.762,-2.838l0.017,-0.029l5.471,-0.15l1.45,0.513l7.262,2.75l-11.866,0.187c-0.371,0.071 -0.771,0.063 -1.15,0.05c-1.859,-0.05 -7.484,-0.229 -20.142,2.596l-0.25,0.058Z" style="fill:#a74a76;fill-rule:nonzero;"/><path d="M150.578,178.392l-6.904,-0.85l4.929,-2.187c8.988,-3.83 12.996,-4.95 14.5,-5.371c0.063,-0.013 0.121,-0.029 0.171,-0.046l0.513,-0.2c1.075,-0.429 1.562,-0.746 1.783,-0.938l0.613,-0.537l4.637,1.358l-2.137,1.788c-0.563,0.471 -1.334,0.891 -2.405,1.321c-0.312,0.183 -0.7,0.283 -1.158,0.404c-1.446,0.383 -5.292,1.404 -14.179,5.108l-0.363,0.15Z" style="fill:#a74a76;fill-rule:nonzero;"/><path d="M145.407,177.696l-5.459,-0.421l2.767,-2.329c6.975,-5.875 7.9,-7.304 7.938,-7.362c0.187,-0.375 0.254,-0.734 0.2,-1.104l-0.33,-2.117l4.313,0.925l0.167,0.979c0.166,0.971 0.004,1.954 -0.48,2.904c-0.425,0.975 -3.354,3.75 -8.67,8.154l-0.446,0.371Z" style="fill:#a74a76;fill-rule:nonzero;"/><path d="M140.141,177.033l-2.483,-0.079l-1.842,-0.225l0.621,-1.75c1.238,-3.479 1.733,-6.367 1.404,-8.125l-0.054,-0.225c-0.229,-0.642 -0.592,-1.304 -1.087,-1.971l-2.088,-2.816l5.313,0.691l0.37,0.492c0.767,1.004 1.296,1.992 1.63,3.021l0.15,0.466l-0.042,0.109c0.467,2.925 -0.567,6.708 -1.538,9.425l-0.354,0.987Z" style="fill:#a74a76;fill-rule:nonzero;"/><path d="M131.755,176.439l-1.633,-0.137l-0.317,-0.917c-1.187,-3.45 -2.721,-6.492 -4.312,-8.554l-0.092,-0.117c-0.783,-0.879 -1.738,-1.771 -2.842,-2.65l-3.241,-2.592l4.991,-0.062l0.909,0.004l0.404,0.325c1.283,1.021 2.346,2.013 3.258,3.033l0.313,0.405c1.137,1.491 3.033,4.429 4.72,9.241l0.63,1.804l-2.788,0.217Z" style="fill:#a74a76;fill-rule:nonzero;"/><path d="M123.731,175.87l-1.312,-0.088l-0.384,-0.371c-4.737,-4.562 -7.916,-6.937 -8.537,-7.387l-0.792,-0.292l0,-0.271c-1.091,-0.679 -2.421,-1.45 -3.791,-2.171l-4.034,-2.112l6.134,-0.925l0.429,0.229c1.754,0.929 3.287,1.838 4.7,2.779l-0.013,0.017c1.259,0.796 5.063,3.858 9.321,7.929l2.125,2.038l-3.846,0.625Z" style="fill:#a74a76;fill-rule:nonzero;"/><path d="M113.021,175.369l-1.796,-0.217c-6.158,-3.22 -9.258,-4.566 -9.283,-4.575c-1.75,-0.72 -3.579,-1.391 -5.629,-2.058l-4.325,-1.396l5.837,-1.933l0.459,0.154c2.1,0.688 3.987,1.383 5.771,2.121l-0.009,0.012c1.492,0.575 6.538,3.088 10.034,4.913l3.441,1.8l-4.5,1.179Z" style="fill:#a74a76;fill-rule:nonzero;"/><path d="M91.968,171.8c0.025,0.005 0.046,0.009 0.071,0.013l0.05,-0l-0.121,-0.013Zm9.084,5.471l-0.429,-0.121c-5.538,-1.579 -8.78,-2.341 -9.15,-2.42l0.004,-0.025c-2.425,-0.48 -4.629,-0.859 -6.838,-1.163l-4.662,-0.637l5.633,-2.875l0.454,0.066c2.367,0.35 4.688,0.763 6.888,1.238c0.121,0.016 3.637,0.841 9.558,2.55l3.821,1.1l-5.279,2.287Z" style="fill:#a74a76;fill-rule:nonzero;"/><path d="M91.476,181.012l-0.412,-0.041c-5.804,-0.592 -8.696,-0.704 -8.717,-0.704l-0.025,-0c-2.567,-0.092 -5.183,-0.088 -7.783,0.012l-4.404,0.175l4.595,-3.771l0.488,-0.016c2.55,-0.088 5.225,-0.08 7.95,0.033c0.125,0.004 3.421,0.162 9.196,0.783l4.279,0.463l-5.167,3.066Z" style="fill:#a74a76;fill-rule:nonzero;"/><path d="M62.985,189.049l3.433,-4.362l0.517,-0.105c2.621,-0.529 5.333,-0.975 8.063,-1.32c0.454,-0.05 2.15,-0.255 5.295,-0.488l4.084,-0.304l-4.338,3.9l-0.362,0.029c-2.575,0.213 -4.138,0.396 -4.667,0.458l-0.375,0.03c-2.554,0.35 -5.129,0.791 -7.671,1.325l-3.979,0.837Z" style="fill:#a74a76;fill-rule:nonzero;"/><path d="M58.615,197.826l1.445,-3.254c0.105,-0.242 0.221,-0.475 0.342,-0.709l0.258,-0.525l0.605,-0.296c2.562,-0.95 4.987,-1.741 7.404,-2.437c-0,-0 1.029,-0.3 3.112,-0.821l3.054,-0.762l-2.35,4.241l-0.479,0.125c-1.783,0.45 -2.729,0.721 -2.858,0.759c-2.425,0.716 -4.846,1.529 -7.204,2.416l-3.329,1.263Z" style="fill:#a74a76;fill-rule:nonzero;"/><path d="M56.324,206.245l1.054,-4.58l0.587,-0.316c2.046,-1.092 4.184,-2.146 6.359,-3.129c0.004,-0 0.754,-0.346 2.291,-0.98l2.988,-1.229l-1.513,4.25l-0.616,0.425c-1.313,0.554 -2.013,0.871 -2.075,0.9c-1.984,0.904 -4,1.913 -6.192,3.096l-2.883,1.563Z" style="fill:#a74a76;fill-rule:nonzero;"/><path d="M55.848,213.902l0.233,-4.429l0.584,-0.412c1.712,-1.204 3.487,-2.363 5.329,-3.5c0.5,-0.3 1.854,-1.121 4.304,-2.459l0.862,-0.466l1.338,1.054l0.233,0.879l0,0.888l-0.787,0.72c-2.538,1.388 -3.938,2.246 -4.279,2.45c-1.892,1.175 -3.617,2.325 -5.3,3.505l-2.517,1.77Z" style="fill:#a74a76;fill-rule:nonzero;"/><path d="M57.154,220.417l-0.925,-3.821l0.666,-0.575c1.538,-1.329 3.13,-2.633 4.788,-3.921l0.421,-0.312c2.875,-2.167 6.108,-4.338 9.821,-6.621l0.504,-0.308l1.471,0.308l0.579,0.95l0.296,1.079l-0.884,0.834c-5.729,3.52 -8.821,5.87 -9.837,6.637c-0.179,0.138 -0.3,0.229 -0.392,0.292c-1.625,1.262 -3.187,2.55 -4.687,3.862l-1.821,1.596Z" style="fill:#a74a76;fill-rule:nonzero;"/><path d="M60.747,224.755l-2.346,-2.55l0.963,-0.992c1.266,-1.292 2.583,-2.567 3.958,-3.833l0.638,-0.588l0.025,0.008c1.595,-1.441 5.891,-5.254 13.925,-10.687l0.445,-0.304l1.213,0.121l0.758,0.595l0.879,1.246l-1.104,1.038c-5.587,3.762 -10.287,7.375 -13.971,10.729c-0.141,0.129 -0.287,0.262 -0.437,0.379l-0.321,-0.375l0.321,0.375c-0.067,0.05 -0.129,0.092 -0.196,0.133l0.017,0.03c-1.384,1.275 -2.55,2.42 -3.688,3.579l-1.079,1.096Z" style="fill:#a74a76;fill-rule:nonzero;"/><path d="M66.004,227.159l-3.354,-1.175l1.238,-1.7c0.954,-1.079 1.929,-2.154 2.95,-3.225l0.787,-0.816l0.025,0.012c1.846,-1.912 6.704,-6.812 15.975,-13.646l0.429,-0.312l1.504,0.208l2.15,1.1l-1.704,1.542c-9.637,7.075 -14.383,11.991 -15.941,13.608c-0.163,0.167 -0.33,0.342 -0.513,0.5l-0.071,0.071c-1.021,1.075 -1.937,2.079 -2.837,3.104l-0.638,0.729Z" style="fill:#a74a76;fill-rule:nonzero;"/><path d="M72.657,227.859l-4.417,-0.096l1.888,-2.341c0.662,-0.821 1.333,-1.642 2.041,-2.463l0.913,-1.062l0.021,0.016c4.2,-4.787 9.587,-9.845 16.025,-15.029l0.412,-0.329l1.142,0.029l3.304,0.534l-2.271,2.145c-9.7,7.775 -14.462,13.217 -16.025,15.005c-0.233,0.262 -0.425,0.483 -0.612,0.658c-0.675,0.792 -1.334,1.587 -1.975,2.379l-0.446,0.554Z" style="fill:#a74a76;fill-rule:nonzero;"/><path d="M75.741,227.798l2.125,-2.891c0.454,-0.621 0.913,-1.234 1.4,-1.855l0.942,-1.2l0.021,0.017c3.758,-4.671 8.596,-9.65 14.383,-14.817l0.396,-0.35l1.429,-0.041l3.929,-0l-2.946,2.604c-8.866,7.842 -13.104,13.142 -14.495,14.887c-0.2,0.25 -0.363,0.45 -0.513,0.609l-1.704,2.258l-4.967,0.779Z" style="fill:#a74a76;fill-rule:nonzero;"/><path d="M104.322,207.315l-0.142,-0.967l0.142,0.967Zm0.067,0.433l0.012,0.067l-0.012,-0.067Zm-19.4,18.433l2.037,-3.112c0.342,-0.521 0.688,-1.038 1.059,-1.575l0.433,-0.584c3.096,-4.325 7.208,-9.075 12.233,-14.125c0.767,-0.62 1.409,-1.108 2.063,-1.575l0.304,-0.22l5.425,-0.796l-3.329,3.221c-5.492,5.312 -9.967,10.35 -13.304,14.975c-0.121,0.158 -0.238,0.325 -0.371,0.479l-1.421,2.083l-5.129,1.229Z" style="fill:#a74a76;fill-rule:nonzero;"/><path d="M96.021,223.379l1.609,-3.062c0.387,-0.742 0.641,-1.229 0.941,-1.734l0.509,-0.858l0.041,0.008c3.946,-6.42 9.575,-13.258 16.725,-20.333l0.379,-0.275l1.459,-0.629l5.212,-0.825l-3.391,3.283c-7.263,7.038 -12.938,13.821 -16.855,20.171c-0.133,0.213 -0.266,0.425 -0.408,0.613c-0.329,0.566 -0.637,1.125 -0.929,1.675l-0.304,0.554l-4.988,1.412Z" style="fill:#a74a76;fill-rule:nonzero;"/><path d="M115.695,204.829l2.692,-3.971c1.512,-2.217 3.146,-4.438 4.875,-6.588l0.258,-0.325l2.054,-0.612l3.975,-0.729l-2.554,3.133c-1.667,2.042 -3.258,4.15 -4.721,6.271l-0.271,0.387l-6.308,2.434Z" style="fill:#a74a76;fill-rule:nonzero;"/><path d="M113.697,215.042l0.904,0.366l-0.904,-0.366Zm-4.571,4.558l0.713,-2.558c0.2,-0.717 0.433,-1.454 0.721,-2.221l0.412,-0.975c1.596,-3.663 4.192,-8.2 7.417,-12.983l0.258,-0.392l6.254,-2.296l-2.625,3.829c-3.433,4.992 -6.133,9.696 -7.608,13.242l-0.15,0.371l0.004,-0c-0.246,0.691 -0.433,1.296 -0.604,1.891l-0.225,0.792l-4.567,1.3Z" style="fill:#a74a76;fill-rule:nonzero;"/><path d="M154.188,203.758l-0.48,-0.275c-1.208,-0.521 -5.183,-2.391 -10.37,-6.471l-2.884,-2.27l5.834,-0.584l0.462,0.354c4.692,3.605 8.2,5.284 9.488,5.842l0.283,0.146l2.746,1.754l-5.079,1.504Z" style="fill:#a74a76;fill-rule:nonzero;"/><path d="M143.983,197.366l-0.642,-0.354c-1.9,-1.488 -3.783,-3.138 -5.583,-4.892l-1.925,-1.871l4.479,-1.037l0.85,0.487c1.833,1.746 3.712,3.371 5.591,4.817l3.03,2.341l-5.8,0.509Z" style="fill:#a74a76;fill-rule:nonzero;"/><path d="M170.317,197.386l-11.187,-0.496c-0.813,-0.037 -1.642,-0.075 -2.463,-0.083l-0.446,-0.071c-4.504,-1.479 -9.012,-3.204 -13.396,-5.129l-3.975,-1.746l6.159,-1.408l0.371,0.167c4.629,2.016 9.429,3.82 14.27,5.366l10.667,3.4Z" style="fill:#a74a76;fill-rule:nonzero;"/><path d="M125.566,201.117l0.838,-2.6c0.566,-1.75 1.241,-3.67 2.066,-5.733l0.259,-0.637l2.137,-0.596l2.629,-0.446l-0.9,2.458c-0.766,1.888 -1.441,3.738 -2.008,5.504l-0.246,0.771l-4.775,1.279Z" style="fill:#a74a76;fill-rule:nonzero;"/><path d="M124.76,215.237l-0.412,-1.383c-0.271,-0.934 -0.438,-1.921 -0.492,-2.942l0.146,-0.008c-0.475,-3.234 2.058,-11.313 2.404,-12.384l0.246,-0.77l4.779,-1.284l-0.846,2.604c-2.329,7.205 -2.412,10.888 -2.412,11.184l-0,0.008c0.046,0.813 0.187,1.613 0.421,2.375l0.446,1.471l-4.28,1.129Z" style="fill:#a74a76;fill-rule:nonzero;"/><path d="M139.661,207.856l-0.458,-0.146c-1.146,-0.367 -3.492,-4.638 -5.025,-10.183l-0.433,-1.55l4.32,-0.796l0.367,1.291c1.421,4.996 3.071,7.5 3.554,8.171l3.013,1.454l-5.338,1.759Z" style="fill:#a74a76;fill-rule:nonzero;"/><path d="M134.66,198.827l-0.483,-1.3c-0.487,-1.767 -0.879,-3.475 -1.192,-5.209l-0.25,-1.375l3.921,-0.891l0.588,1.404c0.346,1.796 0.75,3.479 1.187,5.008l0.467,1.596l-4.238,0.767Z" style="fill:#a74a76;fill-rule:nonzero;"/><path d="M265.064,209.748c-2.521,-0.617 -5.066,-1.2 -7.596,-1.738c-17.295,-3.675 -34.108,-5.541 -50.362,-7.354c-8.758,-0.971 -17.029,-1.891 -24.9,-3.046l-1.213,-0.2c-10.233,-1.608 -21.129,-3.766 -32.387,-6.429l-5.596,-1.316l7.454,-1.875l0.246,0.058c11.088,2.633 21.842,4.792 31.967,6.408c0.408,0.071 0.766,0.125 1.075,0.204l0.004,-0.016c7.742,1.162 15.896,2.108 24.529,3.104c18.429,2.129 37.479,4.329 56.908,9.112l0.205,0.063l-0.013,0.042c0.029,0.004 0.058,0.012 0.092,0.02l0.012,-0.029l-0.008,0.034c0.096,0.02 0.196,0.045 0.292,0.07l-0.063,0.259l0.121,-0.242l-0.767,2.871Z" style="fill:#354552;fill-rule:nonzero;"/><path d="M257.13,207.014c-20.267,-5.225 -41.942,-8.229 -62.909,-11.129l-44.933,-6.492l7.887,-2.067l1.18,-0.033c17.962,2.629 30.279,4.471 35.016,5.179l2.163,0.321c20.571,2.937 41.846,5.975 61.758,11.133l0.846,0.313l-1.008,2.775Z" style="fill:#354552;fill-rule:nonzero;"/><path d="M311.015,247.464l-1.462,-1.275l-0.096,0.041l-1.396,-1.441l0.479,-1.129c1.409,-3.205 0.034,-7.421 -3.875,-11.888c-2.287,-2.7 -9.2,-9.625 -24.912,-16.962c-5.067,-2.284 -10.954,-4.592 -17.8,-6.892c-5.042,-1.663 -10.542,-3.258 -16.333,-4.754l-2.621,-0.725l0.004,-3.067l1.842,0.45c15.175,3.717 26.908,8.004 35.904,12.192c29.787,13.433 32.796,26.475 32.925,30.621c0.029,0.866 -0.017,3.754 -1.704,4.437l-0.955,0.392Z" style="fill:#354552;fill-rule:nonzero;"/><path d="M295.407,243.663c-0.109,0 -0.209,-0.008 -0.296,-0.025l-1.213,-0.233l-0.041,-0.65l-0.384,-0.387l-0.741,-0.138l-0.084,-1.3l0,-3.575l2.038,2.025c0.942,-0.375 2.954,-1.517 3.433,-3.725c0.567,-2.617 -0.833,-8.467 -16.541,-18.296c-6.967,-4.175 -15.875,-8.166 -26.146,-11.787c-12.609,-4.409 -27.167,-8.175 -43.325,-11.2l-6.842,-1.838l6.2,-1.496l0.446,0.113c14.821,2.767 28.754,6.329 40.983,10.412c1.854,0.617 3.679,1.246 5.454,1.892c10.105,3.629 18.817,7.613 25.888,11.829c14.333,9.029 20.312,16.817 17.804,23.154c-1.375,3.48 -5.062,5.225 -6.633,5.225" style="fill:#354552;fill-rule:nonzero;"/><path d="M279.53,236.091c-2.084,-0 -3.771,-0.271 -4.305,-0.625l-1.162,-0.775l0.167,-0.325l-0.067,-0.071l-1.063,-0.683l1.655,-3.134l1.2,1.354c1.862,0.35 9.004,0.325 10.433,-2.25c0.517,-0.933 0.829,-3.858 -7.429,-10.875c-4.45,-3.433 -10.388,-6.92 -17.25,-10.145c-2.388,-1.13 -4.992,-2.267 -7.754,-3.396c-0.721,-0.3 -1.3,-0.546 -1.909,-0.779l-0.004,-0l1.079,-2.775c11.917,4.629 22.2,10.095 28.959,15.408l0.05,0.042c2.929,2.516 11.841,10.179 7.775,15.554c-2.009,2.658 -6.78,3.475 -10.375,3.475" style="fill:#354552;fill-rule:nonzero;"/><path d="M270.435,227.619c-2.312,0 -4.821,-0.375 -7.046,-0.925c-4.841,-1.041 -8.954,-2.641 -8.996,-2.654l-0.345,-0.15l-4.588,-5.562l5.233,1.958c0.696,0.271 4.263,1.592 8.425,2.492c5.496,1.354 9.959,0.929 10.7,-0.313c0.363,-0.604 -0.058,-2.142 -2.283,-4.671l-0.033,-0.012l-0.254,-0.3c-2.346,-2.467 -6.188,-5.325 -11.034,-8.179l-2.204,-1.296l2.013,-1.159l0.645,-0.875l1.155,0.663c5.683,3.271 10.17,6.612 12.983,9.65l0.021,0.025c3.166,3.575 4.116,6.479 2.816,8.629c-1.187,1.963 -4.008,2.679 -7.208,2.679" style="fill:#354552;fill-rule:nonzero;"/><path d="M258.936,219.095c-1.737,-0 -3.65,-0.334 -5.325,-0.734c-9.346,-2.137 -20.975,-8.225 -21.079,-8.283l-0.429,-0.375l-0.621,-0.8l-6.5,-8.021l8.5,5.858c0.017,0 11.017,5.755 19.821,7.78c4.533,1.091 6.546,0.525 6.725,0.208c0.025,-0.054 0.033,-0.408 -0.363,-1.129c-0.75,-1.342 -2.529,-3.121 -5,-5.009l-5.758,-4.395l8.138,2.166c3.208,2.396 5.458,4.675 6.508,6.596l0.008,0.021c1.184,2.229 0.679,3.658 0.054,4.467c-0.945,1.22 -2.704,1.65 -4.679,1.65" style="fill:#354552;fill-rule:nonzero;"/><path d="M245.492,210.122c-1.129,0 -2.508,-0.212 -4.146,-0.629c-11.821,-2.975 -30.737,-14.571 -30.854,-14.671l-0.679,-0.783l2.054,-2.133c0.042,0.016 18.346,11.083 29.2,13.837c2.217,0.571 3.442,0.584 3.983,0.496c-0.116,-0.221 -0.35,-0.596 -0.837,-1.146l-3.971,-4.479l7.067,2.821c1.541,1.65 2.2,3.054 2.008,4.283l0,0.009c-0.117,0.72 -0.525,1.341 -1.154,1.754c-0.65,0.425 -1.538,0.641 -2.671,0.641" style="fill:#354552;fill-rule:nonzero;"/><path d="M231.222,197.81l0.008,0.045l0.025,-0.004l-0.008,-0.054l-0.025,0.013Zm-0.304,2.991c-0.921,0 -2.092,-0.208 -3.554,-0.633c-7.238,-2.104 -19.804,-8.696 -37.359,-19.583c-0.016,-0.009 -0.033,-0.021 -0.054,-0.034l-0.2,0.304l-2.704,-2.575l0.858,-1.079c0.834,-1.041 1.63,-0.554 3.213,0.425c21.329,13.138 31.383,17.538 36.058,18.913c1.167,0.337 1.909,0.462 2.363,0.491l-0.05,-1.587l4.083,1.975l0.125,0.779c0.163,1.058 -0.375,2.254 -1.95,2.538c-0.254,0.045 -0.525,0.066 -0.829,0.066" style="fill:#354552;fill-rule:nonzero;"/><path d="M221.652,191.539l-5.959,0c-0.566,0 -1.3,-0.129 -2.245,-0.396l-0.05,-0.016l0.12,-0.38c-0.058,-0.012 -0.12,-0.025 -0.183,-0.037l-0.179,0.342l-0.771,-0.255c-9.367,-3.341 -29.15,-15.1 -39.775,-21.412c-1.942,-1.158 -3.712,-2.213 -4.829,-2.854l-0.038,0.071l-1.691,-1l-3.225,-1.73l3.521,-1.016c0.308,-0.084 0.483,-0.142 1.104,0.133l0.004,-0.008l0.117,0.066c0.879,0.413 2.566,1.4 6.308,3.605c10.371,6.104 29.675,17.47 38.454,20.654c0.296,0.108 0.583,0.208 0.867,0.287c0.771,0.234 1.2,0.292 1.346,0.309l0.554,0.162l6.55,3.475Z" style="fill:#354552;fill-rule:nonzero;"/><path d="M197.714,182.278l-0.867,-0.366c-0.6,-0.259 -1.304,-0.575 -2.1,-0.942c-5.246,-2.642 -13.187,-6.871 -21.35,-11.233c-0.854,-0.455 -1.712,-0.913 -2.567,-1.363c-11.258,-5.975 -25.216,-13.375 -27.266,-14.096l-2.7,0l1.629,-2.412c0.258,-0.325 0.475,-0.563 1.021,-0.534c0.029,-0.004 0.062,-0.008 0.096,-0.012l0.025,-0.017l0.32,-0.004l0,0.038c1.817,0.241 7.038,3.037 26.375,13.383c1.484,0.796 2.98,1.592 4.463,2.383c7.708,4.092 15.358,8.138 20.271,10.629c1.083,0.5 1.837,0.846 2.454,1.113l1.183,0.596l-0.008,0.021l0.15,0.062l-1.129,2.754Z" style="fill:#354552;fill-rule:nonzero;"/><path d="M179.758,173.407l-1.33,-0.612c-0.958,-0.517 -1.937,-1.042 -3.066,-1.633l-0.725,-0.38c-17.104,-10.075 -52.079,-24.158 -54.788,-24.391l0.109,-1.271l-1.4,-1.096c0.079,-0.096 0.154,-0.192 0.254,-0.275l0.041,-0.046c1.796,-2.321 21.046,6.4 36.913,14.142c6.271,2.9 13.225,6.287 18.783,9.45c1.309,0.679 2.15,1.121 2.375,1.246l0.004,-0l0.68,0.358c1.354,0.713 2.512,1.317 3.491,1.854l-1.341,2.654Z" style="fill:#354552;fill-rule:nonzero;"/><path d="M161.418,165.599l-1.4,-0.529c-1.454,-0.783 -2.845,-1.529 -4.429,-2.333l-0.6,-0.296c-18.45,-10.813 -53.575,-18.917 -58.725,-19.117l-2.896,4.817l0.521,-6.642l0.229,-0.65c2.538,-4.187 48.538,10.617 63.092,19.171c2.088,1.058 3.917,2.021 5.479,2.896l-1.271,2.683Z" style="fill:#354552;fill-rule:nonzero;"/><path d="M142.107,159.24l-1.471,-0.4c-1.813,-0.855 -3.5,-1.625 -5.363,-2.421l-0.437,-0.192c-21.438,-10.992 -57.558,-11.3 -62.258,-10.271l-1.355,3.534l-1.5,-5.009l0.155,-0.587c0.183,-0.484 0.579,-0.842 1.166,-1.063c4.175,-1.587 42.996,-1.066 65.854,10.754c2.238,0.95 4.355,1.925 6.292,2.9l-1.083,2.755Z" style="fill:#354552;fill-rule:nonzero;"/><path d="M48.405,155.475l-0.37,-0.454c-0.1,-0.129 -0.196,-0.258 -0.284,-0.387l-1.196,-1.692l2.184,-0.837l0.187,-0.071c9.638,-3.717 18.05,-5.179 23.409,-5.759c9.47,-1.245 20.295,-0.958 30.395,0.667c1.059,0.163 2.113,0.35 3.155,0.558c3.612,0.696 7.104,1.567 10.37,2.609c2.059,0.612 3.996,1.275 5.817,1.95l12.604,4.687l-15.029,-2.05c-1.45,-0.483 -2.646,-0.879 -3.912,-1.266l-1.088,-0.338c-2.704,-1.054 -5.562,-1.875 -8.504,-2.508c-1.838,-0.375 -3.713,-0.696 -5.613,-0.967c-21.954,-2.929 -46.4,3.167 -49.954,5.208l-2.171,0.65Z" style="fill:#354552;fill-rule:nonzero;"/><path d="M28.874,171.263l-2.758,-2.075l3.204,-1.783l0.021,-0.017c6.912,-5.121 14.196,-9.112 21.646,-11.866c14.033,-5.55 30.808,-7.48 44.879,-5.163c0.646,0.092 1.279,0.196 1.912,0.308l12.671,2.188l-12.833,0.767c-0.608,0.033 -1.204,0.079 -1.8,0.125l-0.163,0.012l-0.712,-0.104c-27.133,-6.154 -60.067,12.937 -63.271,16.083l-2.796,1.525Z" style="fill:#354552;fill-rule:nonzero;"/><path d="M17.644,191.71l-3.913,-1.088l-0.216,-0.825c-0.221,-0.837 0.17,-1.679 1.612,-3.462c5.621,-6.971 32.546,-32.742 61.358,-31.542l8.855,0l-8.375,2.892c-0.384,0.133 -0.767,0.275 -1.146,0.425l-0.579,0.212l-0.284,-0.004c-29.262,-0.587 -55.608,27.984 -57.821,31.367l0.509,2.025Z" style="fill:#354552;fill-rule:nonzero;"/><path d="M4.749,214.806l-0.541,-0.934c-0.317,-0.641 -0.392,-1.325 1.379,-4.791c7.029,-13.775 27.2,-41.029 53.246,-45.621l8.5,-1.917l-7.509,5.275l-0.421,0.104c-30.1,5.442 -50.183,41.888 -51.62,45.996l0.675,1.417l-3.709,0.471Z" style="fill:#354552;fill-rule:nonzero;"/><path d="M1.327,240.054l-1.025,-0.946c-0.358,-0.504 -0.637,-0.896 0.629,-5.421c1.275,-4.554 13.321,-44.829 42.942,-57.695c1.467,-0.73 2.942,-1.375 4.429,-1.975l5.892,-2.371l-4.221,4.741c-0.229,0.255 -0.446,0.513 -0.658,0.771l-0.234,0.284l-0.416,0.229c-0.634,0.271 -1.25,0.537 -1.875,0.829c-0.517,0.237 -1.03,0.492 -1.542,0.746c-28.479,12.433 -40.85,53.466 -41.55,58.183l0.65,0.946l-3.021,1.679Z" style="fill:#354552;fill-rule:nonzero;"/><path d="M2.186,264.435l-1.054,-1.15c-0.417,-0.454 -0.6,-0.662 -0.242,-4.65c0.446,-4.775 5.05,-47.237 31.433,-67.112c2.263,-1.817 4.671,-3.492 7.155,-4.988l5.012,-3.02l-2.962,5.045c-0.18,0.305 -0.346,0.617 -0.505,0.921l-0.187,0.363l-0.346,0.208c-1.096,0.683 -2.175,1.4 -3.242,2.163c-0.825,0.604 -1.666,1.233 -2.5,1.9l-0.329,0.266c-25.087,18.942 -30.187,60.859 -30.112,66.629l0.55,0.646l-2.671,2.779Z" style="fill:#354552;fill-rule:nonzero;"/><path d="M6.584,286.152l-1.321,-2.096c-0.191,-0.296 -5.262,-46.229 19.321,-75.242c2.596,-3.129 5.496,-6.046 8.617,-8.662l4.2,-3.517l-2.338,6.554l-0.3,0.259c-0.437,0.375 -0.745,0.641 -1.041,0.912c-2.271,2.046 -4.429,4.296 -6.417,6.704c-22.021,25.988 -19.092,67.309 -18.796,70.804l0.246,0.459l-2.171,3.825Z" style="fill:#354552;fill-rule:nonzero;"/><path d="M10.161,303.295l1.392,-3.946c-0.034,-0.175 -0.08,-0.425 -0.13,-0.734c-4.837,-27.15 -1.562,-52.787 9.225,-72.2c2.442,-4.316 5.338,-8.387 8.617,-12.112l3.417,-3.892l-0.988,6.142l-0.333,0.712c-2.867,3.325 -5.417,6.946 -7.583,10.746c-10.271,18.409 -13.471,42.871 -8.996,68.884c0.191,1.108 0.304,1.737 0.012,2.216l-0.266,0.754c-0.059,0.371 -0.242,0.646 -0.63,0.909l-3.737,2.521Z" style="fill:#354552;fill-rule:nonzero;"/><path d="M20.846,311.746l-1.779,-1.179l0.204,-0.742c-0.062,-0.204 -0.146,-0.488 -0.254,-0.85c-8.529,-28.371 -4.1,-51.613 1.117,-66.113l0.012,-0.037c2.129,-5.471 4.875,-10.679 8.15,-15.471l2.717,-3.971l0.025,5.85l-0.258,0.692c-2.896,4.317 -5.334,8.983 -7.242,13.867c-5.017,13.766 -9.317,35.904 -1.283,62.991c0.366,1.229 0.579,1.938 0.241,2.5l-0.204,0.775c-0.012,0.429 -0.187,0.754 -0.604,1.071l-0.842,0.617Z" style="fill:#354552;fill-rule:nonzero;"/><path d="M29.818,317.935l-1.858,-3.463c-0.404,-0.662 -1.912,-3.316 -3.592,-8.141c-5.408,-16.279 -6.041,-32.946 -1.879,-49.554l0.009,-0.017c1.57,-5.992 3.829,-11.788 6.712,-17.221l2.083,-3.937l0.909,5.725l-0.221,0.437c-2.538,4.896 -4.542,10.071 -5.967,15.388c-4.008,15.704 -3.475,31.47 1.596,46.841c1.75,5.071 3.246,7.434 3.258,7.45l0.355,0.542l-1.405,5.95Z" style="fill:#354552;fill-rule:nonzero;"/><path d="M39.999,312.519l-1.233,-0.1c-1.167,-0.096 -6.392,-3.767 -9.871,-14.354c-2.067,-6.4 -4.054,-16.954 -1.787,-30.904l0.004,-0.009c0.975,-5.804 2.629,-11.575 4.916,-17.145l1.371,-3.334l1.913,4.529l-0.238,0.592c-2.008,4.996 -3.475,10.125 -4.354,15.246c-2.196,13.046 -0.387,22.867 1.513,28.804c2.866,8.788 6.754,11.638 7.55,12.146l1.404,0.204l-1.188,4.325Z" style="fill:#354552;fill-rule:nonzero;"/><path d="M49.077,303.514c-1.408,0 -3.329,-0.254 -5.35,-1.217c-3.992,-1.908 -6.896,-5.775 -8.633,-11.495c-1.542,-5.009 -2.042,-10.896 -1.484,-17.488l0,-0.004c0.442,-5.058 1.513,-10.304 3.2,-15.592l0.771,-2.429l1.734,1.863c0.116,0.125 0.237,0.241 0.354,0.35l0.696,0.637l-0.28,0.9c-1.462,4.688 -2.404,9.296 -2.8,13.688c-0.554,6.037 -0.129,11.404 1.255,15.958c3.666,12.15 12.175,10.325 12.254,10.304l3.016,-1.292l-1.883,5.292l-0.654,0.267c-0.208,0.083 -1.025,0.258 -2.196,0.258" style="fill:#354552;fill-rule:nonzero;"/><path d="M54.538,292.516c-1.896,-0 -3.605,-0.346 -5.117,-1.042c-3.142,-1.437 -5.313,-4.292 -6.442,-8.496c-0.675,-2.329 -1.029,-5.05 -1.062,-8.066l-0,-0.009c-0.021,-4.029 0.541,-8.416 1.662,-13.029l0.371,-1.537l1.513,0.466c0.179,0.054 0.295,0.092 0.416,0.117l1.525,0.287l-0.354,1.517c-0.937,4.008 -1.417,7.763 -1.408,11.154c0.016,2.704 0.321,5.088 0.908,7.092c0.863,3.225 2.433,5.371 4.671,6.408c3.317,1.534 8.121,0.838 14.283,-2.079c0.542,-0.254 0.721,-0.342 0.975,-0.387l2.75,-0.496l-1.975,4.583l-1.029,0.304c-4.45,2.138 -8.354,3.213 -11.687,3.213" style="fill:#354552;fill-rule:nonzero;"/><path d="M62.179,281.233c-1.616,-0 -3.129,-0.259 -4.462,-0.855c-2.592,-1.15 -4.279,-3.4 -5.009,-6.683c-0.133,-0.437 -0.25,-0.987 -0.358,-1.583l0,-0.004c-0.496,-2.788 -0.45,-6.134 0.125,-9.934l0.158,-1.041l3.834,-0.775l-0.296,2.1c-0.442,3.079 -0.467,5.775 -0.071,8.016c0.088,0.484 0.192,0.938 0.3,1.354c0.521,2.317 1.567,3.767 3.225,4.513c6.054,2.729 18.538,-4.192 23.867,-7.142c2.641,-1.462 3.166,-1.733 3.825,-1.687l2.258,0.162l-2.079,3.971l-0.704,-0.05c-0.429,0.196 -1.463,0.779 -2.463,1.342c-5.096,2.871 -14.725,8.296 -22.15,8.296" style="fill:#354552;fill-rule:nonzero;"/><path d="M72.661,269.184c-1.204,0 -2.304,-0.142 -3.267,-0.45c-1.796,-0.579 -3.104,-1.675 -3.891,-3.262c-0.392,-0.617 -0.767,-1.492 -1.05,-2.475l-0.009,-0.025c-0.325,-1.2 -0.5,-2.617 -0.516,-4.213l-0.013,-0.979l3.579,-1.558l0.363,2.05c0.058,1.65 0.346,3.012 0.846,4.041c0.095,0.204 0.208,0.396 0.316,0.584c0.459,0.916 1.138,1.466 2.129,1.783c6.888,2.221 24.421,-6.983 33.834,-11.925c6.671,-3.508 7.696,-3.996 8.733,-3.638l1.821,0.601l-2.158,3.42l-0.809,-0.258c-0.958,0.313 -3.921,1.896 -6.791,3.425c-9.305,4.967 -24.134,12.879 -33.117,12.879" style="fill:#354552;fill-rule:nonzero;"/><path d="M143.34,235.297c0.095,0.063 0.195,0.1 0.27,0.125l-0.27,-0.125Zm-57.584,21.284c-1.271,-0 -2.354,-0.154 -3.233,-0.488c-1.808,-0.75 -3.117,-2.071 -3.925,-3.933l-0.517,-1.188l3.713,-2.141l0.696,1.404c0.412,0.846 1.004,1.458 1.8,1.85l0.316,0.146c6.188,2.312 30.146,-8.167 44.467,-14.434c13.287,-5.812 14.954,-6.395 16.196,-5.62l1.216,0.758l-1.77,3.004l-0.971,-0.454c-1.529,0.233 -7.938,3.071 -14.138,5.821c-18.229,8.083 -35.262,15.275 -43.85,15.275" style="fill:#354552;fill-rule:nonzero;"/><path d="M102.694,244.302c-2.108,0 -3.85,-0.358 -5.321,-1.087l-2.645,-1.309l2.629,-1.346c0.521,-0.27 1.058,-0.541 1.587,-0.8l0.592,-0.283l0.617,0.246c0.9,0.371 1.945,0.567 3.183,0.604l0.487,0.004c6.205,-0.054 16.805,-3.716 28.017,-7.596c4.846,-1.679 9.854,-3.412 14.821,-4.966c9.321,-3.154 19.912,-6.15 31.45,-8.904c0.367,-0.092 0.642,-0.159 0.804,-0.192l2.796,-1.625l-0.771,3.342c-0.033,0.158 -0.071,0.308 -0.117,0.462l-0.162,0.533l-0.471,0.292c-0.229,0.142 -0.229,0.142 -1.512,0.454c-11.609,2.813 -22.242,5.863 -31.605,9.075c-5.062,1.609 -10.158,3.4 -15.087,5.134c-12.017,4.229 -22.408,7.875 -29.163,7.962l-0.129,0Z" style="fill:#354552;fill-rule:nonzero;"/><path d="M113.884,232.559l9.05,-3.9c1.042,-0.034 2.15,-0.117 3.354,-0.263l0.33,-0.046c6.725,-1.008 15.695,-3.329 25.191,-5.779c9.209,-2.383 18.729,-4.85 27.963,-6.65c15.454,-3.396 29.6,-4.754 34.246,-5.2c0.479,-0.046 0.854,-0.083 1.125,-0.112l0.675,-0.692l2.104,2.033l-0.725,1.296c-0.413,0.45 -0.413,0.45 -2.667,0.667c-4.675,0.462 -18.896,1.85 -34.417,5.308c-9.37,1.867 -19.041,4.413 -28.387,6.879c-9.629,2.538 -18.717,4.934 -25.471,5.988l-0.033,0.004c-1.85,0.246 -3.542,0.379 -5.163,0.392l-7.175,0.075Z" style="fill:#354552;fill-rule:nonzero;"/><path d="M267.188,210.932c-5.3,-1.154 -11.058,-2.183 -17.108,-3.054l-0.013,-0c-12.942,-1.975 -27.462,-2.854 -41.512,-3.704c-8.075,-0.488 -15.7,-0.954 -23.096,-1.609l-0.509,-0.137c-0.341,-0.158 -0.687,-0.317 -1.037,-0.467l-9.413,-4.037l10.171,1.191c7.159,0.838 15.221,1.33 23.75,1.85c17.442,1.063 37.209,2.271 58.675,6.825l0.859,0.271l-0.767,2.871Z" style="fill:#354552;fill-rule:nonzero;"/><path d="M136.26,222.932l13.6,-5.021l0.62,-0.063c10.909,-2 67.013,-11.966 89.317,-9.779l0.483,0.129l6.346,2.971l-6.571,0.063c-3.95,-0.071 -7.695,-0.059 -11.437,0.033c-18.367,-0.129 -44.542,4.333 -65.663,7.962c-4.695,0.809 -9.083,1.563 -13.012,2.2l-1.85,0.209l-11.833,1.296Z" style="fill:#354552;fill-rule:nonzero;"/><path d="M159.893,214.244l14.495,-4.516c25.155,-2.446 56.659,-4.888 79.075,-2.159l0.917,0.288l11.104,4.021l-11.754,-1.142c-6.929,-0.675 -14.154,-1.058 -21.471,-1.146c-16.254,-0.329 -33.85,1.308 -49.387,2.742c-3.042,0.279 -5.992,0.554 -8.817,0.8l-14.162,1.112Z" style="fill:#354552;fill-rule:nonzero;"/><path d="M262.464,210.851c-6.896,-1.133 -14.346,-1.996 -22.146,-2.542l-0.008,0c-14.025,-1.05 -28.937,-0.871 -42.096,-0.716c-3.041,0.037 -6.021,0.066 -8.921,0.087l-8.845,0.067l9.779,-3.392c2.925,-0.008 5.937,-0.025 9.008,-0.05c11.967,-0.092 25.529,-0.196 38.425,0.667c2.304,0.154 4.579,0.321 6.854,0.521l3.525,0.329c2.559,0.262 4.954,0.541 7.304,0.854c2.355,0.308 4.659,0.642 6.9,1.004l0.925,0.288l-0.704,2.883Z" style="fill:#354552;fill-rule:nonzero;"/><path d="M253.956,205.166c-1.875,-0.771 -3.808,-1.516 -5.8,-2.25c-0.342,-0.125 -0.688,-0.25 -1.038,-0.371c-9.554,-3.437 -20.166,-6.429 -31.566,-8.9l-0,-0.004c-0.196,-0.029 -0.421,-0.079 -0.704,-0.141c-1.855,-0.405 -7.5,-1.646 -16.867,-3.163l-0.475,-0.133l-3.379,-1l3.229,-2.067l0.633,0.013c9.709,1.583 15.596,2.895 17.529,3.329l0.359,0.079l0.012,-0.004l0.371,0.083c11.713,2.567 22.954,5.808 32.904,9.475c1.346,0.488 2.663,0.988 3.963,1.496c0.671,0.262 1.312,0.533 1.904,0.779c0.017,0.008 0.033,0.017 0.05,0.021l-1.125,2.758Z" style="fill:#949da4;fill-rule:nonzero;"/><path d="M260.857,209.679l-0.646,-0.379c-5.238,-3.088 -11.442,-6.03 -18.317,-8.721c-3.621,-1.4 -7.412,-2.721 -11.333,-3.954c-4.313,-1.359 -8.879,-2.634 -13.588,-3.788l0.005,-0.008c-0.313,-0.046 -0.663,-0.134 -1.05,-0.229c-2.767,-0.692 -11.184,-2.792 -25.475,-4.763l-0.792,-0.254l-0.917,-0.383l0.063,-1.438l0.321,-1.3l1.329,0.188c14.587,2.029 23.175,4.2 25.996,4.912c0.162,0.042 0.3,0.071 0.416,0.104l0.025,-0.012l0.6,0.146c8.934,2.208 17.471,4.891 25.2,7.9c7.134,2.741 13.617,5.77 19.121,8.941l1.354,0.771l-1.087,1.704l-1.225,0.563Z" style="fill:#949da4;fill-rule:nonzero;"/><path d="M263.282,211.03l-8.617,-2.446c-5.879,-4.488 -14.837,-8.984 -25.25,-12.775c-4.083,-1.463 -8.675,-2.913 -13.808,-4.279c-0.092,-0.021 -0.2,-0.046 -0.359,-0.092c-0.895,-0.242 -3.616,-0.975 -8.312,-2.017l-0.304,-0.083l-13.363,-5.346l16.571,2.925c3.188,0.758 5.092,1.271 5.783,1.454c4.525,1.213 8.93,2.575 13.117,4.046c15.954,5.508 24.842,11.35 28.313,13.946l6.229,4.667Z" style="fill:#949da4;fill-rule:nonzero;"/><path d="M251.461,207.88l-7,-2.516l-0.241,-0.271c-2.03,-2.275 -8.092,-6.7 -19.175,-11.117c-2.925,-1.137 -6.15,-2.262 -9.675,-3.337l-4.1,-1.246l3.808,-1.492l0.467,-0.366l0.758,0.22c4.062,1.259 7.717,2.58 10.979,3.917c10.517,4.246 17.192,8.725 20.025,11.763l4.154,4.445Z" style="fill:#949da4;fill-rule:nonzero;"/><path d="M234.16,200.975l-4.592,-2.183l-0.008,-0.937c-0.296,-0.63 -3.496,-3.371 -11.042,-6.575c-1.65,-0.684 -3.491,-1.384 -5.537,-2.088l-0.613,-0.267l1.059,-2.779c2.246,0.775 4.354,1.588 6.291,2.417c8.013,3.325 13.546,7.05 13.975,9.617l0.467,2.795Z" style="fill:#949da4;fill-rule:nonzero;"/><path d="M215.731,191.543c-0.025,0 -0.05,0 -0.075,-0.004l-0.358,-0.008l-8.421,-4.425l2.488,0.258c-1.221,-0.5 -2.675,-1.042 -4.396,-1.612l-0.959,-0.388l1.034,-2.787c2.662,0.866 4.871,1.704 6.608,2.504c3.529,1.533 6.329,3.312 6.038,5.008c-0.121,0.675 -0.7,1.454 -1.959,1.454" style="fill:#949da4;fill-rule:nonzero;"/><path d="M200.09,183.035c-0.579,-0 -1.304,-0.296 -2.4,-0.771l-0.242,-0.121c-0.841,-0.254 -1.983,-0.571 -3.475,-0.921l-1.22,-0.47l0.87,-2.838c1.705,0.388 2.963,0.708 3.9,0.983l0.021,-0.045c0.134,0.062 0.259,0.112 0.375,0.166c0.904,0.284 1.454,0.513 1.796,0.729c1.608,0.605 1.7,1.005 1.808,1.442l0.213,0.892l-0.704,0.596c-0.296,0.25 -0.592,0.358 -0.942,0.358" style="fill:#949da4;fill-rule:nonzero;"/><path d="M181.353,176.358l-9.109,-3.196l6.554,-0.158c-0.166,-0.088 -0.329,-0.184 -0.483,-0.263l1.333,-2.658l2.963,1.5c1.779,1.029 3.187,1.842 2.812,3.287c-0.379,1.446 -2.041,1.467 -3.8,1.488l-0.27,-0Z" style="fill:#949da4;fill-rule:nonzero;"/><path d="M168.075,171.914l-4.537,-1.354l2.037,-1.767c0.054,-0.046 0.075,-0.071 0.075,-0.075c-0.196,-0.146 -1.321,-1.208 -5.842,-3.746l1.238,-2.695c0.487,0.179 0.983,0.362 1.462,0.554c2.321,1.283 3.813,2.216 4.884,3.025c1.154,0.875 2.341,1.958 2.379,3.366c0.012,0.571 -0.167,1.413 -1.092,2.188l-0.604,0.504Z" style="fill:#949da4;fill-rule:nonzero;"/><path d="M155.348,168.464l-4.325,-0.959l-0.167,-1.012c-0.471,-2.804 -8.008,-6.529 -10.488,-7.754l1.05,-2.771l1.521,0.417c5.009,2.475 8.204,4.516 10.025,6.337c1.179,1.183 1.85,2.354 2.042,3.567l0.342,2.175Z" style="fill:#949da4;fill-rule:nonzero;"/><path d="M143.047,165.953l-5.959,-0.783l-0.375,-0.496c-2.629,-3.429 -8.633,-6.908 -17.362,-10.05l-13.604,-4.904l16.329,2.342c9.071,3.404 15.179,7.058 18.158,10.862l2.813,3.029Z" style="fill:#949da4;fill-rule:nonzero;"/><path d="M129.086,164.456l-4.417,-0.067c-0.375,-0.008 -0.766,-0.008 -1.158,0l-0.529,0.009l-0.413,-0.33c-4.366,-3.429 -12.516,-7.995 -26.554,-10.254l-0.575,-0.087l-11.608,-2.075l13.775,-1.013l0.175,0.025c11.571,2.034 21.191,5.859 27.833,11.067l3.471,2.725Z" style="fill:#949da4;fill-rule:nonzero;"/><path d="M109.359,165.522l-0.441,-0.233c-9.484,-4.938 -20.15,-7.309 -31.663,-7.071l-0.004,0.004l-11.725,0.475l10.908,-3.904c12.725,-0.408 24.492,2.187 35.004,7.687l4.109,2.146l-4.592,0.642c-0.358,0.054 -0.729,0.108 -1.104,0.171l-0.492,0.083Z" style="fill:#949da4;fill-rule:nonzero;"/><path d="M96.835,168.659l-0.517,-0.137c-12.325,-3.95 -24.029,-4.567 -35.775,-1.875l-7.804,1.983l5.896,-4.458c0.358,-0.271 0.725,-0.534 1.1,-0.8l0.538,-0.238c12.504,-2.758 24.937,-2.037 38.008,2.208l4.396,1.43l-5.842,1.887Z" style="fill:#949da4;fill-rule:nonzero;"/><path d="M42.982,180.089l3.966,-4.742c0.363,-0.433 0.584,-0.7 0.809,-0.945l0.541,-0.384c11.442,-4.633 23.792,-5.916 37.763,-3.921l4.729,0.68l-5.683,2.829l-0.467,-0.063c-13.346,-1.829 -25.117,-0.479 -35.971,4.129l-5.687,2.417Z" style="fill:#949da4;fill-rule:nonzero;"/><path d="M35.82,192.972l2.567,-4.875c0.179,-0.342 0.375,-0.696 0.575,-1.042l0.196,-0.325l0.32,-0.196c10.259,-6.179 21.946,-9.408 35.738,-9.867l4.575,-0.154l-4.75,3.746l-0.504,0.021c-13.225,0.521 -24.363,3.717 -34.046,9.775l-4.671,2.917Z" style="fill:#949da4;fill-rule:nonzero;"/><path d="M30.543,207.075l2.345,-6.667l0.313,-0.258c9.221,-7.73 20.254,-12.821 33.733,-15.567l4.029,-0.821l-3.47,4.338l-0.53,0.112c-12.925,2.721 -23.462,7.704 -32.204,15.233l-4.216,3.63Z" style="fill:#949da4;fill-rule:nonzero;"/><path d="M28.077,221.06l0.683,-4.975l1.088,-0.125l-0.13,-0.113l-0.912,-0.1c-0,0 0.029,-0.258 0.108,-0.725l0.075,-0.412l0.275,-0.313c8.2,-9.279 18.963,-16.429 31.996,-21.254l3.517,-1.304l-2.25,4.608l-0.584,0.221c-11.75,4.434 -21.525,10.813 -29.054,18.971c-0.516,0.554 -1.008,1.121 -1.496,1.688l-3.316,3.833Z" style="fill:#949da4;fill-rule:nonzero;"/><path d="M28.15,233.841l-0.121,-6.092l0.271,-0.396c7.263,-10.612 17.246,-19.358 29.663,-26.008l2.891,-1.546l-1.062,4.571l-0.584,0.312c-10,5.417 -18.333,12.23 -24.766,20.246c-1.271,1.588 -2.504,3.271 -3.663,5l-2.629,3.913Z" style="fill:#949da4;fill-rule:nonzero;"/><path d="M29.851,245.844l-0.875,-5.862l0.233,-0.442c6.292,-11.896 15.534,-22.15 27.463,-30.483l2.512,-1.759l-0.233,4.425l-0.583,0.409c-9.009,6.362 -16.446,13.875 -22.088,22.341c-1.525,2.288 -2.975,4.746 -4.304,7.292l-2.125,4.079Z" style="fill:#949da4;fill-rule:nonzero;"/><path d="M33.778,255.024l-1.984,-4.446l0.234,-0.567c5.245,-12.787 13.608,-24.225 24.866,-33.987l1.892,-1.646l0.879,3.842l-0.687,0.604c-10.896,9.508 -18.938,20.6 -23.9,32.966l-1.3,3.234Z" style="fill:#949da4;fill-rule:nonzero;"/><path d="M39.368,261.339l-1.741,-1.667c-0.167,-0.158 -0.329,-0.32 -0.488,-0.495l-0.591,-0.634l0.262,-0.829c4.183,-13.129 11.988,-25.75 22.558,-36.504l1.105,-1.121l2.391,2.517l-1.033,1.05c-10.288,10.475 -17.808,22.708 -21.75,35.383l-0.713,2.3Z" style="fill:#949da4;fill-rule:nonzero;"/><path d="M46.725,264.126l-1.417,-0.283c-0.245,-0.05 -0.487,-0.121 -0.729,-0.196l-1.329,-0.417l0.325,-1.354c2.196,-9.062 7.496,-22.933 20.313,-37.591l0.65,-0.746l3.32,1.175l-1.216,1.716c-12.509,14.246 -17.559,27.596 -19.592,36.292l-0.325,1.404Z" style="fill:#949da4;fill-rule:nonzero;"/><path d="M52.157,264.183l0.317,-2.016c1.062,-6.809 4.766,-20.634 17.65,-36.738l0.462,-0.575l4.467,0.025l-1.946,2.421c-9.212,11.454 -15.387,24.271 -16.937,35.162l-0.15,1.038l-3.863,0.683Z" style="fill:#949da4;fill-rule:nonzero;"/><path d="M63.945,260.997l-0.021,-2.242c-0.066,-9.225 5.142,-21.879 13.942,-33.854l0.367,-0.496l5.087,-0.912l-2.254,3.042c-10.063,13.595 -13.421,25.312 -13.213,31.745l0.038,1.009l-3.946,1.708Z" style="fill:#949da4;fill-rule:nonzero;"/><path d="M79.403,253.571l-0.795,-1.391c-0.175,-0.392 -0.334,-0.755 -0.442,-1.159c-1.779,-6.216 1.617,-16.933 8.858,-27.95l0.325,-0.491l5.179,-1.267l-2.087,3.162c-8.192,12.417 -9.904,21.884 -7.963,25.755l0.646,1.279l-3.721,2.062Z" style="fill:#949da4;fill-rule:nonzero;"/><path d="M98.052,243.553l-0.675,-0.337c-1.904,-0.942 -3.204,-2.467 -3.854,-4.525c-1.367,-4.292 0.091,-10.825 4.108,-18.383l0.296,-0.555l5.008,-1.404l-1.621,3.054c-3.546,6.696 -4.891,12.421 -3.687,15.705c0.471,1.27 1.287,2.125 2.512,2.612l3.138,1.258l-3.046,1.467c-0.504,0.242 -1.008,0.496 -1.504,0.754l-0.675,0.354Z" style="fill:#949da4;fill-rule:nonzero;"/><path d="M120.683,232.486c-5.891,-0 -9.612,-1.975 -11.062,-5.875c-0.938,-2.529 -0.863,-5.746 0.217,-9.571l0.225,-0.796l4.545,-1.304l-0.687,2.546c-1.079,3.996 -0.883,6.941 0.571,8.754c1.454,1.808 4.296,2.617 8.425,2.421l8.141,-0.388l-9.991,4.213l-0.384,-0Z" style="fill:#949da4;fill-rule:nonzero;"/><path d="M193.995,203.339l-8.55,-0.775c-6.717,-0.646 -12.084,-1.408 -16.892,-2.404l-0.05,-0.013c-1.275,-0.266 -5.675,-1.262 -12.275,-3.412l-9.654,-3.146l10.15,0.246c0.846,0.021 1.7,0.042 2.541,0.079l0.38,0.071c5.595,1.771 9.345,2.646 10.695,2.937c4.196,0.875 8.855,1.588 14.321,2.192l0.4,0.108c0.35,0.142 0.679,0.292 1.021,0.446l7.913,3.671Z" style="fill:#949da4;fill-rule:nonzero;"/><path d="M140.19,222.187c-7.029,0 -13.908,-1.662 -15.841,-8.346l-0.421,-1.466l4.229,-1.109l0.433,1.354c1.042,3.3 4.384,7.434 21.23,5.296l13.129,-1.666l-14.838,5.387c-2.479,0.3 -5.212,0.55 -7.921,0.55" style="fill:#949da4;fill-rule:nonzero;"/><path d="M160.796,213.768c-8.829,0 -14.683,-1.171 -18.742,-3.633l-2.625,-1.596l0.284,-0.104c-0.43,-0.375 -0.817,-0.758 -1.167,-1.154l-1.513,-1.696l4.45,-1.467l0.65,0.713c0.659,0.725 1.421,1.375 2.305,1.946c0.179,0.079 0.341,0.175 0.475,0.304c3.787,2.25 9.504,3.271 17.695,3.2l0.005,-0c3.07,-0.021 6.633,-0.184 11.216,-0.513l11.954,-0.862l-13.308,4.341c-4.387,0.346 -8.258,0.521 -11.679,0.521" style="fill:#949da4;fill-rule:nonzero;"/><path d="M187.253,207.689c-13.971,0 -25.05,-0.775 -33.438,-4.162l-3.933,-1.584l5.908,-1.766l0.479,0.191c5.071,2.025 11.55,3.2 20.384,3.684l0.004,-0c4.596,0.258 9.441,0.304 13.575,0.308l8.4,0.008l-9.338,3.313c-0.687,0.004 -1.366,0.008 -2.041,0.008" style="fill:#949da4;fill-rule:nonzero;"/><path d="M169.141,132.636c-10.525,-1.191 -18.175,-2.808 -23.662,-4.083l0.604,-2.917l2.283,0.413c3.729,0.812 9.538,1.996 17.384,3l3.812,0.641l-0.421,2.946Z" style="fill:#bf7896;fill-rule:nonzero;"/><path d="M179.871,134.813l-6.012,-0.458c-16.879,-1.567 -26.125,-4.188 -29.163,-5.046c-0.066,-0.021 -0.137,-0.042 -0.196,-0.058l-0.025,0.029l-0.908,-0.25c-1.546,-0.421 -3.033,-0.85 -4.479,-1.304l-2.433,-0.763l2.191,-2.054l0.859,-0.171l0.337,0.1c1.2,0.367 2.417,0.713 3.675,1.063c0.363,0.058 0.746,0.162 1.125,0.275c2.988,0.846 12.067,3.429 28.783,4.971l0.95,0.345l5.296,3.321Z" style="fill:#bf7896;fill-rule:nonzero;"/><path d="M186.524,136.315l-7.846,-0.325c-16.058,-0.905 -24.662,-3.217 -27.608,-4.021l-0.017,0.041l-1.191,-0.312c-2.7,-0.708 -5.371,-1.513 -7.934,-2.388l-0.612,-0.262l1.058,-2.779c2.321,0.783 4.788,1.525 7.329,2.204c0.363,0.042 0.759,0.15 1.167,0.267c2.729,0.75 11.021,3.045 26.896,4l1.292,0.27l7.466,3.305Z" style="fill:#bf7896;fill-rule:nonzero;"/><path d="M183.533,137.503c-14.462,-0 -21.879,-1.783 -24.437,-2.396c-0.263,-0.062 -0.467,-0.117 -0.613,-0.142l-0.391,-0.025c-2.788,-0.616 -5.413,-1.316 -7.884,-2.104l-0.962,-0.4l1.033,-2.787c2.296,0.741 4.746,1.408 7.275,1.983c0.409,0.021 0.854,0.129 1.288,0.233c2.675,0.655 10.791,2.646 27.133,2.384l0.142,-0l1.196,0.246l8.745,2.737l-8.954,0.233c-1.233,0.025 -2.429,0.038 -3.571,0.038" style="fill:#bf7896;fill-rule:nonzero;"/><path d="M179.53,139.403c-5.859,-0 -9.209,-0.538 -10.73,-0.783l-0.029,0.041l-1.004,-0.137c-2.229,-0.3 -4.292,-0.659 -6.304,-1.096l-1.242,-0.479l0.884,-2.838c1.841,0.425 3.737,0.771 5.783,1.067c0.404,-0.021 0.837,0.058 1.25,0.129c2.317,0.396 9.396,1.613 24.45,0.054l0.162,-0.016l0.996,0.154l-0.033,0.371l0.079,0.72l0.421,-0.979l7.904,2.029l-8.112,0.892c-5.967,0.65 -10.734,0.871 -14.475,0.871" style="fill:#bf7896;fill-rule:nonzero;"/><path d="M174.203,142.32l-9.225,-3.191l12.329,-0.254c0.371,-0.084 0.783,-0.071 1.163,-0.055c1.841,0.063 7.395,0.217 19.829,-2.566l0.258,-0.059l1.242,0.188l6.979,1.308l-6.7,1.642c-12.579,2.908 -18.25,2.837 -20.438,2.8l-0.016,0.033l-5.421,0.154Z" style="fill:#bf7896;fill-rule:nonzero;"/><path d="M188.506,146.939l-0.779,-0.225c-0.404,-0.121 -0.809,-0.238 -1.188,-0.363l-2.521,-0.8l1.992,-1.737c0.538,-0.463 1.283,-0.875 2.396,-1.313c0.312,-0.187 0.704,-0.291 1.162,-0.412c1.434,-0.384 5.234,-1.4 13.95,-5.029l0.363,-0.15l6.896,0.854l-4.938,2.183c-8.846,3.775 -12.8,4.875 -14.291,5.296c-0.059,0.017 -0.121,0.033 -0.18,0.046l-0.487,0.196c-0.867,0.345 -1.458,0.658 -1.767,0.92l-0.608,0.534Z" style="fill:#bf7896;fill-rule:nonzero;"/><path d="M203.968,150.76l-2.083,-0.4c-0.342,-0.067 -0.671,-0.142 -1.005,-0.217l-0.975,-0.221l-0.4,-1.046c-0.162,-0.979 0.005,-1.95 0.488,-2.879c0.446,-0.987 3.333,-3.712 8.542,-8.029l0.437,-0.367l1.246,0.063c0.225,0.021 0.45,0.046 0.671,0.079l3.325,0.45l-2.567,2.162c-6.871,5.784 -7.779,7.18 -7.817,7.234c-0.183,0.371 -0.25,0.716 -0.191,1.079l0.329,2.092Z" style="fill:#bf7896;fill-rule:nonzero;"/><path d="M219.703,153.262l-5.317,-0.675l-0.379,-0.496c-0.779,-1.025 -1.304,-2.008 -1.612,-3.008l-0.155,-0.496l0.042,-0.108c-0.354,-2.329 0.158,-5.417 1.521,-9.234l0.354,-0.991l2.45,0.071l1.879,0.195l-0.629,1.788c-1.204,3.375 -1.704,6.187 -1.404,7.929l0.067,0.283c0.22,0.638 0.575,1.284 1.058,1.925l2.125,2.817Z" style="fill:#bf7896;fill-rule:nonzero;"/><path d="M234.86,153.693l-5.983,0l-0.404,-0.325c-1.271,-1.012 -2.321,-1.996 -3.213,-2.996l-0.325,-0.416c-1.762,-2.329 -3.392,-5.525 -4.642,-9.1l-0.658,-1.888l2.6,-0.129l1.821,0.088l0.329,0.962c1.683,4.892 3.546,7.542 4.267,8.458l0.046,0.055c0.779,0.879 1.729,1.766 2.82,2.637l3.342,2.654Z" style="fill:#bf7896;fill-rule:nonzero;"/><path d="M242.855,152.855l-0.416,-0.225c-1.617,-0.854 -3.171,-1.771 -4.621,-2.729l0.012,-0.021c-1.254,-0.792 -4.92,-3.738 -9.191,-7.821l-2.109,-2.012l3.634,-0.646l1.487,0.083l0.384,0.375c4.525,4.358 7.554,6.65 8.316,7.208l0.888,0.184l-0,0.412c1.121,0.725 2.35,1.442 3.729,2.163l3.929,2.071l-4.383,0.716c-0.396,0.067 -0.796,0.129 -1.188,0.179l-0.471,0.063Z" style="fill:#bf7896;fill-rule:nonzero;"/><path d="M255.885,149.966l-0.459,-0.15c-2.029,-0.658 -3.887,-1.346 -5.696,-2.096l0.013,-0.025c-1.875,-0.704 -8.221,-3.954 -9.888,-4.825l-3.245,-1.691l4.512,-1.263l1.558,0.192c5.463,2.854 8.784,4.362 9.167,4.517c1.713,0.704 3.517,1.362 5.533,2.016l4.192,1.363l-5.687,1.962Z" style="fill:#bf7896;fill-rule:nonzero;"/><path d="M267.925,145.189l-0.442,-0.062c-2.271,-0.33 -4.563,-0.734 -6.8,-1.217c-0.142,-0 -3.913,-0.921 -9.429,-2.517l-3.938,-1.141l5.375,-2.25l0.442,0.133c5.387,1.537 8.517,2.279 8.979,2.383l-0.004,-0.004l0.017,0.004c0.004,0 0.008,0.004 0.016,0.004c2.304,0.48 4.488,0.859 6.742,1.171l4.65,0.646l-4.167,2.15c-0.354,0.183 -0.704,0.35 -1.037,0.508l-0.404,0.192Z" style="fill:#bf7896;fill-rule:nonzero;"/><path d="M274.695,138.715c-1.42,0 -2.866,-0.033 -4.37,-0.087c0.012,-0 -2.955,-0.121 -9.059,-0.771l-4.075,-0.437l4.896,-3.055l0.463,0.005c5.7,0.583 8.562,0.695 8.587,0.695l0.013,0c2.566,0.088 5.15,0.088 7.683,-0.012l4.283,-0.163l-3.262,2.784c-0.267,0.229 -0.55,0.458 -0.825,0.675l-0.379,0.287l-0.475,0.017c-1.15,0.042 -2.309,0.062 -3.48,0.062" style="fill:#bf7896;fill-rule:nonzero;"/><path d="M269.593,132.909l2.975,-3.329l0.846,-0.538l0.358,-0.029c2.717,-0.217 4.283,-0.404 4.688,-0.454c2.758,-0.359 5.366,-0.804 7.841,-1.329l4.025,-0.855l-3.454,4.367l-0.525,0.108c-2.621,0.534 -5.3,0.967 -7.967,1.3c-0.108,0.021 -1.937,0.242 -5.208,0.492l-3.579,0.267Z" style="fill:#bf7896;fill-rule:nonzero;"/><path d="M278.272,126.545l2.529,-4.238l0.525,-0.17c1.496,-0.375 2.392,-0.634 2.704,-0.721c2.525,-0.746 4.917,-1.55 7.217,-2.421l3.433,-1.3l-2.204,4.617l-0.55,0.204c-2.429,0.9 -4.887,1.704 -7.304,2.396c0,-0 -1.025,0.3 -3.067,0.812l-3.283,0.821Z" style="fill:#bf7896;fill-rule:nonzero;"/><path d="M283.639,119.611l1.488,-4.108l0.671,-0.563c0.95,-0.404 1.575,-0.679 1.866,-0.808l0.196,-0.087c2.008,-0.925 4,-1.921 6.079,-3.042l2.992,-1.617l-1.163,4.617l-0.583,0.312c-1.979,1.071 -4.087,2.109 -6.254,3.092l-0.304,0.133c-0.409,0.18 -1.042,0.455 -1.967,0.834l-3.021,1.237Z" style="fill:#bf7896;fill-rule:nonzero;"/><path d="M286.133,113.052l-1.487,-1.004l-0.108,-1.808l0.783,-0.721c2.346,-1.271 3.704,-2.1 4.15,-2.367l0.279,-0.158c1.658,-1.029 3.363,-2.171 5.017,-3.338l2.429,-1.716l-0.113,4.362l-0.616,0.425c-1.688,1.188 -3.442,2.329 -5.259,3.446c-0.591,0.358 -1.908,1.154 -4.237,2.421l-0.838,0.458Z" style="fill:#bf7896;fill-rule:nonzero;"/><path d="M280.921,110.867l-1.483,-0.308l-0.567,-0.967l-0.438,-1.15l1.03,-0.737c3.787,-2.325 7.054,-4.538 9.716,-6.567c0.163,-0.121 0.271,-0.204 0.359,-0.267c1.608,-1.237 3.141,-2.508 4.62,-3.804l1.855,-1.621l0.9,3.842l-0.671,0.575c-1.517,1.308 -3.088,2.592 -4.721,3.862l-0.425,0.313c-2.813,2.121 -6.004,4.262 -9.675,6.521l-0.5,0.308Z" style="fill:#bf7896;fill-rule:nonzero;"/><path d="M275.074,109.939l-1.254,-0.133l-0.75,-0.646l-1.138,-1.271l1.417,-0.95c8.179,-5.517 12.346,-9.292 13.712,-10.533c0.167,-0.15 0.334,-0.3 0.509,-0.434l0.304,0.371l-0.304,-0.371c0.045,-0.029 0.091,-0.062 0.133,-0.091l-0.017,-0.025c1.384,-1.284 2.542,-2.409 3.663,-3.546l1.029,-1.046l1.062,1.017c0.142,0.141 0.28,0.283 0.417,0.437l0.921,1.038l-0.975,0.991c-1.242,1.267 -2.538,2.525 -3.9,3.78l-0.679,0.62l-0.021,-0.008c-1.613,1.454 -5.842,5.192 -13.679,10.496l-0.45,0.304Z" style="fill:#bf7896;fill-rule:nonzero;"/><path d="M269.426,109.484l-1.466,-0.25l-2.125,-1.1l1.683,-1.534c9.504,-6.975 14.183,-11.816 15.717,-13.408c0.158,-0.158 0.32,-0.325 0.491,-0.475l0.129,-0.142c0.95,-1.004 1.867,-1.995 2.742,-2.995l0.625,-0.721l0.913,0.266c0.166,0.05 0.316,0.105 0.47,0.159l2.025,0.75l-1.287,1.671c-0.925,1.07 -1.9,2.129 -2.904,3.183l-0.809,0.854l-0.025,-0.017c-1.854,1.921 -6.629,6.721 -15.716,13.417l-0.463,0.342Z" style="fill:#bf7896;fill-rule:nonzero;"/><path d="M264.027,109.231l-1.196,-0.079l-3.021,-0.675l2.083,-1.987c9.613,-7.7 14.28,-13.05 15.813,-14.813c0.212,-0.242 0.396,-0.45 0.571,-0.617c0.679,-0.787 1.325,-1.566 1.954,-2.35l0.446,-0.558l4.362,0.15l-1.833,2.283c-0.654,0.817 -1.317,1.617 -2.013,2.425l-0.912,1.067l-0.021,-0.017c-4.15,4.725 -9.458,9.705 -15.792,14.813l-0.441,0.358Z" style="fill:#bf7896;fill-rule:nonzero;"/><path d="M257.72,109.097l-4.209,-0.171l2.754,-2.437c5.855,-5.175 10.667,-10.125 14.317,-14.713c0.225,-0.279 0.404,-0.504 0.592,-0.675l-0.017,-0.016l1.621,-2.121l4.917,-0.763l-2.125,2.904c-0.438,0.6 -0.888,1.196 -1.359,1.809l-0.941,1.229l-0.034,-0.033c-3.716,4.608 -8.479,9.512 -14.175,14.587l-0.396,0.354l-0.945,0.046Z" style="fill:#bf7896;fill-rule:nonzero;"/><path d="M249.403,107.909l0.012,0.066l-0.012,-0.066Zm0.079,0.529l0.137,0.946l-0.137,-0.946Zm-3.638,2.929l2.742,-3.054c5.437,-5.258 9.854,-10.229 13.133,-14.775c0.1,-0.15 0.217,-0.304 0.342,-0.454l1.421,-2.067l5.179,-1.233l-2.383,3.546c-0.255,0.379 -0.509,0.758 -0.78,1.137l-0.412,0.554c-3.071,4.284 -7.129,8.975 -12.067,13.946c-0.766,0.613 -1.404,1.088 -2.033,1.542l-0.304,0.225l-4.838,0.633Z" style="fill:#bf7896;fill-rule:nonzero;"/><path d="M231.194,119.847l3.304,-3.2c7.171,-6.937 12.758,-13.62 16.608,-19.875c0.129,-0.204 0.254,-0.408 0.396,-0.591c0.329,-0.567 0.638,-1.121 0.938,-1.663l0.295,-0.55l5.067,-1.466l-1.987,3.65c-0.209,0.387 -0.413,0.775 -0.646,1.175l-0.513,0.87l-0.041,-0.004c-3.875,6.296 -9.417,13.034 -16.48,20.017l-0.362,0.267l-1.475,0.637l-5.104,0.733Z" style="fill:#bf7896;fill-rule:nonzero;"/><path d="M224.736,122.732l2.379,-2.917c1.621,-1.983 3.188,-4.058 4.659,-6.175l0.271,-0.383l6.295,-2.417l-2.704,3.967c-1.516,2.221 -3.137,4.404 -4.812,6.488l-0.242,0.295l-0.346,0.146c-0.271,0.113 -0.566,0.225 -0.841,0.325l-0.93,0.171l-3.729,0.5Z" style="fill:#bf7896;fill-rule:nonzero;"/><path d="M239.32,100.483l0.904,0.329l-0.904,-0.329Zm-10.142,16.937l2.592,-3.77c3.341,-4.875 6,-9.496 7.483,-13.03l0.15,-0.35l-0.008,-0.004c0.262,-0.716 0.441,-1.308 0.604,-1.887l0.233,-0.813l0.808,-0.221c0.392,-0.104 0.78,-0.216 1.155,-0.333l2.6,-0.792l-0.73,2.617c-0.204,0.708 -0.429,1.433 -0.7,2.188l-0.379,1.025l-0.058,-0.005c-1.071,2.446 -3.208,6.696 -7.288,12.755l-0.258,0.383l-0.437,0.171c-0.467,0.179 -0.95,0.362 -1.45,0.537l-4.317,1.529Z" style="fill:#bf7896;fill-rule:nonzero;"/><path d="M208.123,121.426l-0.471,-0.362c-4.788,-3.679 -8.375,-5.342 -9.359,-5.767l-2.983,-1.771l5.117,-1.625l0.458,0.313c1.521,0.671 5.271,2.521 10.146,6.35l2.917,2.296l-5.825,0.566Z" style="fill:#bf7896;fill-rule:nonzero;"/><path d="M213.929,126.276l-0.779,-0.475c-1.775,-1.7 -3.63,-3.296 -5.5,-4.741l-2.946,-2.271l5.85,-0.596l0.475,0.367c1.883,1.479 3.737,3.1 5.512,4.825l1.929,1.875l-4.541,1.016Z" style="fill:#bf7896;fill-rule:nonzero;"/><path d="M209.591,127.013l-0.596,-0.138c-4.583,-2.012 -9.187,-3.741 -14.062,-5.295l-10.829,-3.455l11.354,0.55c0.817,0.042 1.633,0.071 2.442,0.088l0.429,0.071c4.437,1.45 8.883,3.15 13.204,5.054l3.875,1.704l-5.817,1.421Z" style="fill:#bf7896;fill-rule:nonzero;"/><path d="M220.586,124.502l1.008,-2.521c0.784,-1.954 1.446,-3.783 1.984,-5.437l0.25,-0.775l4.475,-1.217l-0.571,2.546c-0.613,1.908 -1.296,3.812 -2.034,5.654l-0.266,0.65l-2.175,0.592l-2.671,0.508Z" style="fill:#bf7896;fill-rule:nonzero;"/><path d="M222.738,119.135l0.838,-2.587c2.296,-7.096 2.375,-10.725 2.375,-11.017c-0.054,-0.866 -0.192,-1.625 -0.413,-2.325l-0.47,-1.496l4.295,-1.141l0.405,1.416c0.275,0.963 0.433,1.942 0.479,2.905l-0.134,0.004c0.45,3.208 -2.045,11.154 -2.383,12.204l-0.242,0.767l-4.75,1.27Z" style="fill:#bf7896;fill-rule:nonzero;"/><path d="M216.208,120.417l-0.371,-1.296c-1.392,-4.9 -3.013,-7.379 -3.5,-8.037l-2.988,-1.446l5.238,-1.75l0.416,0.1c1.325,0.321 3.65,4.933 5.067,10.083l0.425,1.55l-4.287,0.796Z" style="fill:#bf7896;fill-rule:nonzero;"/><path d="M217.31,125.56l-0.292,-1.496c-0.337,-1.721 -0.733,-3.383 -1.179,-4.933l-0.446,-1.567l4.292,-0.829l0.375,1.321c0.433,1.516 0.833,3.246 1.196,5.133l0.258,1.342l-4.204,1.029Z" style="fill:#bf7896;fill-rule:nonzero;"/><path d="M203.968,127.68l-0.225,-0.054c-10.938,-2.596 -21.538,-4.721 -31.504,-6.313c-0.388,-0.062 -0.742,-0.121 -1.05,-0.196l-0.004,0.017c-7.646,-1.154 -15.705,-2.083 -24.238,-3.075c-18.142,-2.096 -36.904,-4.262 -56.042,-8.967l-0.195,-0.062l0.012,-0.033l-0.133,-0.038l-0.013,0.025l0.004,-0.025c-0.083,-0.021 -0.166,-0.042 -0.245,-0.062l0.687,-2.892l0.121,0.029c2.458,0.6 4.925,1.163 7.387,1.688c17.017,3.612 33.559,5.454 49.559,7.229c8.662,0.966 16.841,1.879 24.625,3.025l1.208,0.196c10.063,1.575 20.8,3.704 31.921,6.329l5.817,1.371l-6.359,1.67l-1.333,0.138Z" style="fill:#354552;fill-rule:nonzero;"/><path d="M196.237,128.181l-26.975,-3.975c-5.525,-0.821 -8.288,-1.234 -9.659,-1.613l-0.025,0.167c-19.291,-2.746 -41.158,-5.863 -60.883,-10.975l-0.567,-0.183l0.005,-0.017l0.741,-2.883c20.05,5.17 42.334,8.254 62,10.966l44.242,6.392l-7.7,2.083l-1.179,0.038Z" style="fill:#354552;fill-rule:nonzero;"/><path d="M112.163,116.124l-1.204,-0.287c-14.975,-3.671 -26.55,-7.909 -35.429,-12.046c-29.334,-13.234 -32.296,-26.088 -32.421,-30.175c-0.029,-0.859 0.016,-3.721 1.691,-4.4l0.955,-0.392l1.441,1.246l0.1,-0.038l1.404,1.446l-0.487,1.129c-1.404,3.138 -0.046,7.292 3.812,11.692c2.25,2.663 9.059,9.475 24.505,16.696c5,2.258 10.82,4.542 17.587,6.812c5.017,1.646 10.433,3.225 16.1,4.688l2.596,0.742l-0.142,1.758l-0.508,1.129Z" style="fill:#354552;fill-rule:nonzero;"/><path d="M143.856,124.405l-0.504,-0.05c-15.204,-2.825 -29.475,-6.521 -41.892,-10.771c-1.287,-0.438 -2.558,-0.884 -3.808,-1.329c-9.942,-3.567 -18.529,-7.496 -25.521,-11.671c-14.162,-8.921 -20.054,-16.613 -17.541,-22.875c1.391,-3.467 5.333,-5.404 6.85,-5.1l1.216,0.246l0.113,0.72l0.275,0.275l0.75,0.146l0.079,1.309l-0.025,3.516l-2.013,-1.979c-0.92,0.375 -2.891,1.496 -3.358,3.663c-0.55,2.566 0.833,8.329 16.3,17.995c6.608,3.963 14.992,7.763 24.633,11.225c12.571,4.471 27.705,8.421 43.838,11.434c0.45,0.121 0.767,0.204 1.062,0.275l4.842,1.191l-5.296,1.78Z" style="fill:#354552;fill-rule:nonzero;"/><path d="M81.19,83.08l-0.005,0.012l0.021,-0.025l-0.016,0.013Zm21.62,30.987c-11.754,-4.562 -21.887,-9.954 -28.55,-15.187l-0.05,-0.042c-2.891,-2.483 -11.7,-10.058 -7.666,-15.371c3.15,-4.146 13.062,-3.754 14.491,-2.8l1.163,0.775l-0.163,0.321l0.046,0.05l1.075,0.704l-1.687,3.083l-1.175,-1.32c-1.846,-0.35 -8.854,-0.313 -10.25,2.208c-0.504,0.917 -0.804,3.796 7.321,10.696c4.387,3.375 10.237,6.812 16.995,9.996c2.467,1.158 5.038,2.283 7.642,3.345c0.592,0.246 1.225,0.513 1.888,0.771l-1.08,2.771Z" style="fill:#354552;fill-rule:nonzero;"/><path d="M95.215,109.882l-0.987,-0.766c-5.6,-3.225 -10.029,-6.517 -12.808,-9.521l-0.017,-0.025c-3.129,-3.525 -4.067,-6.396 -2.779,-8.525c2.016,-3.342 8.841,-3.025 14.083,-1.738c4.833,1.038 8.846,2.609 8.879,2.621l0.342,0.154l4.717,5.959l-5.467,-2.409c-0.004,-0.004 -3.746,-1.458 -8.225,-2.433c-5.404,-1.329 -9.796,-0.917 -10.521,0.304c-0.362,0.609 0.092,2.188 2.454,4.804l0.038,0.038c2.421,2.533 6.196,5.329 10.908,8.1l1.854,1.092l-1.675,1.35l-0.796,0.995Z" style="fill:#354552;fill-rule:nonzero;"/><path d="M129.33,113.61l-7.133,-4.58c-0.025,-0.008 -10.959,-5.708 -19.571,-7.691c-4.463,-1.071 -6.4,-0.525 -6.6,-0.209c-0,0 -0.083,0.296 0.354,1.096c0.742,1.313 2.492,3.067 4.925,4.925l6.163,4.704l-8.546,-2.475c-3.163,-2.358 -5.379,-4.612 -6.413,-6.508l-0.008,-0.017c-1.167,-2.204 -0.675,-3.62 -0.058,-4.42c1.766,-2.275 6.358,-1.755 9.895,-0.913c9.275,2.113 20.688,8.113 20.788,8.171l0.429,0.371l5.775,7.546Z" style="fill:#354552;fill-rule:nonzero;"/><path d="M143.385,123.566c-0.046,0 -17.967,-10.85 -28.7,-13.571c-2.134,-0.55 -3.334,-0.579 -3.875,-0.491c0.112,0.221 0.341,0.583 0.8,1.1l4.129,4.654l-7.2,-2.988c-1.542,-1.645 -2.196,-3.037 -1.992,-4.258c0.117,-0.717 0.521,-1.333 1.15,-1.737c1.271,-0.842 3.475,-0.846 6.725,-0.017c11.617,2.917 30.267,14.333 30.392,14.437l0.729,0.83l-2.158,2.041Z" style="fill:#354552;fill-rule:nonzero;"/><path d="M124.358,117.747l0.012,0.084c0.009,-0.004 0.013,-0.004 0.021,-0.004l-0.033,-0.08Zm41.742,20.963c-0.546,-0 -1.205,-0.4 -2.225,-1.029c-21.017,-12.929 -30.9,-17.259 -35.492,-18.621c-1.163,-0.338 -1.896,-0.454 -2.329,-0.488l-0,1.596l-3.992,-1.979l-0.121,-0.767c-0.204,-1.258 0.596,-2.291 1.934,-2.529c0.979,-0.183 2.391,-0.008 4.329,0.55c7.137,2.075 19.521,8.567 36.816,19.296c0.021,0.013 0.038,0.021 0.05,0.033l0.2,-0.3l2.75,2.575l-0.937,1.105c-0.325,0.391 -0.629,0.558 -0.983,0.558" style="fill:#354552;fill-rule:nonzero;"/><path d="M187.96,152.338c-0.175,0 -0.391,-0.054 -0.762,-0.221l-0.004,0.005l-0.075,-0.042c-0.859,-0.404 -2.5,-1.371 -6.113,-3.496c-9.512,-5.604 -29.316,-17.267 -38.004,-20.417c-0.317,-0.112 -0.617,-0.208 -0.892,-0.295c-0.766,-0.23 -1.12,-0.271 -1.241,-0.28l-0.617,-0.183l-6.292,-3.25l5.717,-0.204c0.575,0.008 1.317,0.121 2.254,0.4c0.313,0.092 0.663,0.204 1.034,0.325c9.241,3.3 28.737,14.892 39.208,21.112c1.917,1.138 3.662,2.175 4.767,2.813l0.045,-0.088l1.375,0.842l-0.016,0.038c0.041,0.025 0.071,0.037 0.096,0.05l-0.534,1.195l0.779,-1.095l3.059,1.766l-3.404,0.954c-0.134,0.042 -0.246,0.071 -0.38,0.071" style="fill:#354552;fill-rule:nonzero;"/><path d="M210.706,163.65l-0.004,-0.012l-0.033,-0c-1.579,-0 -6.279,-2.517 -26.3,-13.233c-0.967,-0.517 -1.934,-1.038 -2.904,-1.555c-8.071,-4.279 -16.284,-8.629 -21.438,-11.245c-1.075,-0.5 -1.821,-0.838 -2.425,-1.1l-1.4,-0.717l1.229,-2.704l0.859,0.358c0.595,0.263 1.283,0.571 2.066,0.938c5.484,2.758 13.967,7.275 22.509,11.845c0.316,0.167 0.629,0.334 0.941,0.5c11.129,5.9 24.913,13.213 26.988,13.95l2.691,0l-1.612,2.405c-0.254,0.325 -0.433,0.554 -1.013,0.541c-0.05,0.009 -0.1,0.013 -0.154,0.017l0,0.012Z" style="fill:#354552;fill-rule:nonzero;"/><path d="M234.327,171.345c-0.329,-0 -0.771,-0.055 -1.359,-0.184c-5.204,-0.804 -17.425,-6.129 -29.041,-11.608c-7.346,-3.292 -16.834,-7.746 -23.938,-11.808c-1.137,-0.588 -1.871,-0.967 -2.083,-1.084l-0.604,-0.312c-1.363,-0.721 -2.521,-1.329 -3.504,-1.863l1.337,-2.658l1.325,0.612c0.929,0.496 1.888,1.017 3.004,1.592l0.725,0.388c16.825,9.908 51.304,23.795 53.988,24.037l-0.109,1.208l1.396,1.146c-0.208,0.275 -0.408,0.534 -1.137,0.534" style="fill:#354552;fill-rule:nonzero;"/><path d="M256.946,174.661c-10.296,0.004 -46.954,-12.171 -59.6,-19.6c-2.066,-1.042 -3.858,-1.996 -5.404,-2.854l1.238,-2.696l1.404,0.537c1.437,0.771 2.816,1.505 4.371,2.296l0.566,0.271c18.163,10.65 51.992,19.821 57.113,20.038l3.175,0.25l-0.054,0.837l-0.492,0.696c-0.3,0.492 -0.913,0.225 -2.317,0.225" style="fill:#354552;fill-rule:nonzero;"/><path d="M273.817,172.651c-13.488,-0 -39.446,-2.45 -56.463,-11.246c-2.287,-0.979 -4.341,-1.933 -6.191,-2.85l1.041,-2.771l1.463,0.392c1.816,0.858 3.475,1.616 5.308,2.387l0.438,0.196c21.054,10.8 56.62,11.608 61.304,10.617l2.483,-0.292l0.425,1.396l-0.171,0.458c-0.187,0.488 -0.579,0.846 -1.166,1.071c-1.013,0.383 -4.084,0.642 -8.471,0.642" style="fill:#354552;fill-rule:nonzero;"/><path d="M268.787,169.375c-5.929,0 -12.029,-0.495 -17.879,-1.445c-0.933,-0.146 -1.854,-0.309 -2.771,-0.488c-3.633,-0.692 -7.142,-1.562 -10.421,-2.6c-2.041,-0.617 -3.946,-1.267 -5.737,-1.933l-12.65,-4.713l15.346,2.138c1.141,0.412 2.312,0.804 3.558,1.183l0.975,0.3c3.2,1.242 6.604,2.163 10.117,2.821c0.579,0.108 1.154,0.208 1.733,0.308c22.162,3.584 47.733,-2.725 51.379,-4.8l2.258,-0.658l0.584,0.883l1.254,1.671l-2.254,0.825l-0.159,0.054c-9.479,3.671 -17.795,5.125 -23.108,5.692c-3.892,0.508 -8.012,0.762 -12.225,0.762" style="fill:#354552;fill-rule:nonzero;"/><path d="M269.898,165.534c-4.158,0 -8.229,-0.312 -12.088,-0.946c-0.645,-0.096 -1.266,-0.2 -1.887,-0.308l-12.746,-2.238l12.917,-0.716c0.596,-0.034 1.183,-0.075 1.758,-0.125l0.188,-0.013l0.733,0.117c26.662,6.042 59.129,-12.75 62.308,-15.854l1.854,-1.238l2.296,1.813l-1.829,1.762l0.021,-0.012l-0.021,0.012c-6.812,5.054 -13.996,8.996 -21.346,11.713c-9.975,3.941 -21.375,6.033 -32.158,6.033" style="fill:#354552;fill-rule:nonzero;"/><path d="M278.846,160.261c-0.642,-0 -1.288,-0.013 -1.933,-0.042l-8.6,0l8.112,-2.887c0.483,-0.171 0.958,-0.355 1.433,-0.538l0.271,-0.108l0.292,0.004c27.675,0.475 54.492,-26.521 56.967,-30.863l-0.513,-2.016l3.921,1.062l0.208,0.813c0.217,0.833 -0.175,1.675 -1.608,3.45c-5.425,6.716 -30.888,31.121 -58.55,31.125" style="fill:#354552;fill-rule:nonzero;"/><path d="M286.04,153.608l7.283,-5.292l0.438,-0.104c29.587,-5.35 49.425,-41.246 50.862,-45.312l-0.708,-1.496l3.825,-0.379l0.446,0.933c0.308,0.65 0.383,1.342 -1.433,4.867c-6.971,13.545 -26.888,40.345 -52.425,44.85l-8.288,1.933Z" style="fill:#354552;fill-rule:nonzero;"/><path d="M298.951,143.602l4.079,-4.692c0.246,-0.283 0.488,-0.57 0.717,-0.858l0.233,-0.279l0.338,-0.15c0.695,-0.296 1.283,-0.546 1.866,-0.817c0.571,-0.271 1.042,-0.496 1.504,-0.733c28.071,-12.254 40.255,-52.65 40.946,-57.325l-0.708,-1.029l3.279,-1.688l0.821,1.042c0.354,0.5 0.633,0.896 -0.621,5.375c-1.258,4.487 -13.133,44.187 -42.325,56.862c-1.454,0.734 -2.9,1.363 -4.367,1.955l-5.762,2.337Z" style="fill:#354552;fill-rule:nonzero;"/><path d="M308.631,131.81l3.446,-6.188l0.312,-0.2c1.063,-0.666 2.142,-1.37 3.179,-2.125c0.838,-0.604 1.659,-1.225 2.467,-1.875l0.329,-0.262c24.721,-18.663 29.738,-59.9 29.671,-65.638l-0.579,-0.658l2.654,-2.787l1.083,1.158c0.421,0.45 0.596,0.637 0.28,4.3c-0.409,4.721 -4.767,46.708 -31.013,66.467c-2.187,1.762 -4.558,3.412 -7.05,4.92l-4.779,2.888Z" style="fill:#354552;fill-rule:nonzero;"/><path d="M315.223,119.152l2.512,-6.671l1.338,-1.175c2.2,-1.979 4.321,-4.2 6.3,-6.588c21.683,-25.579 18.792,-66.629 18.525,-69.821l-0.213,-0.458l1.892,-3.396l1.508,1.663c0.896,1.25 4.15,46.929 -18.991,74.254c-2.588,3.121 -5.45,5.996 -8.5,8.542l-4.371,3.65Z" style="fill:#354552;fill-rule:nonzero;"/><path d="M320.093,105.39l0.909,-5.717c0.004,-0.129 0.021,-0.258 0.046,-0.383l0.07,-0.387l0.259,-0.296c2.837,-3.309 5.35,-6.867 7.471,-10.584c13.7,-24.541 11.425,-53.095 8.85,-67.933c-0.184,-1.058 -0.296,-1.683 0.004,-2.162l0.283,-0.767c0.067,-0.35 0.246,-0.621 0.613,-0.871l3.845,-2.592l-1.491,4.03c0.029,0.175 0.071,0.416 0.125,0.72c4.758,26.767 1.525,52.038 -9.096,71.159c-2.429,4.287 -5.292,8.304 -8.504,11.946l-3.384,3.837Z" style="fill:#354552;fill-rule:nonzero;"/><path d="M321.713,92.658l-0.021,-6.121l0.263,-0.408c2.829,-4.237 5.233,-8.837 7.141,-13.671c4.942,-13.575 9.188,-35.412 1.25,-62.091c-0.346,-1.159 -0.562,-1.88 -0.241,-2.446l0.208,-0.771c0.012,-0.429 0.183,-0.758 0.6,-1.063l0.842,-0.625l1.783,1.171l-0.204,0.75c0.058,0.204 0.146,0.484 0.254,0.842c8.4,27.975 4.033,50.879 -1.104,65.167l-0.017,0.037c-2.083,5.367 -4.787,10.5 -8.037,15.254l-2.717,3.975Z" style="fill:#354552;fill-rule:nonzero;"/><path d="M321.408,80.671l-0.888,-5.746l0.242,-0.467c2.5,-4.812 4.479,-9.916 5.879,-15.162c3.954,-15.471 3.429,-31.009 -1.571,-46.159c-1.633,-4.729 -3.071,-7.12 -3.229,-7.379l-0.333,-0.525l1.295,-5.233l1.863,2.637c0.017,0.021 1.671,2.538 3.642,8.18c5.333,16.091 5.954,32.52 1.854,48.858l-0.004,0.017c-1.546,5.895 -3.78,11.612 -6.63,16.983l-2.12,3.996Z" style="fill:#354552;fill-rule:nonzero;"/><path d="M319.393,69.68l-1.925,-4.5l0.246,-0.608c1.984,-4.925 3.429,-9.979 4.292,-15.017c2.158,-12.841 0.383,-22.525 -1.483,-28.387c-2.817,-8.613 -6.625,-11.433 -7.434,-11.946l-1.404,-0.187l1.163,-4.325l1.245,0.104c1.155,0.091 6.321,3.712 9.755,14.162c2.92,9.059 3.525,19.588 1.758,30.463l-0.004,0.008c-0.959,5.729 -2.588,11.417 -4.842,16.904l-1.367,3.329Z" style="fill:#354552;fill-rule:nonzero;"/><path d="M315.304,61.075l-2.791,-2.742l0.275,-0.892c1.429,-4.646 2.362,-9.183 2.758,-13.487c0.537,-5.971 0.117,-11.263 -1.246,-15.721c-3.612,-11.963 -11.975,-10.158 -12.058,-10.142l-3.071,1.329l1.937,-5.295l0.617,-0.267c0.438,-0.188 3.663,-0.846 7.346,0.862c4.021,1.855 6.937,5.696 8.671,11.409c1.516,4.966 2.004,10.771 1.45,17.254c-0.421,4.962 -1.479,10.137 -3.146,15.362l-0.742,2.33Z" style="fill:#354552;fill-rule:nonzero;"/><path d="M309.013,56.115l-2.97,-0.684l-0.134,-1.629c0.934,-3.954 1.4,-7.654 1.388,-10.983c-0.013,-2.642 -0.313,-4.996 -0.892,-6.984c-0.854,-3.179 -2.396,-5.287 -4.6,-6.308c-3.271,-1.504 -8,-0.812 -14.058,2.063c-0.521,0.245 -0.696,0.329 -0.946,0.379l-2.708,0.512l1.904,-4.575l1.008,-0.3c6.875,-3.321 12.463,-4.046 16.592,-2.154c3.104,1.417 5.246,4.242 6.366,8.388c0.667,2.287 1.021,4.979 1.046,7.966c0.025,3.95 -0.525,8.271 -1.637,12.842l-0.359,1.467Z" style="fill:#354552;fill-rule:nonzero;"/><path d="M296.945,56.086l-0.017,-2.017c0.425,-3.058 0.45,-5.708 0.063,-7.891c-0.083,-0.467 -0.179,-0.909 -0.3,-1.317c-0.513,-2.296 -1.542,-3.725 -3.163,-4.458c-5.954,-2.688 -18.258,4.137 -23.508,7.054c-2.604,1.437 -3.137,1.704 -3.775,1.662l-2.262,-0.162l2.062,-3.95l0.704,0.046c0.425,-0.196 1.446,-0.771 2.434,-1.325c6.125,-3.45 18.862,-10.63 26.254,-7.334c2.554,1.138 4.216,3.359 4.941,6.596c0.125,0.454 0.255,0.992 0.35,1.563c0.488,2.783 0.45,6.079 -0.125,9.804l-0.154,1.025l-3.504,0.704Z" style="fill:#354552;fill-rule:nonzero;"/><path d="M240.772,67.341c-0.204,-0 -0.379,-0.034 -0.558,-0.092l-1.809,-0.6l2.13,-3.408l0.812,0.25c0.946,-0.313 3.871,-1.871 6.708,-3.384c14.059,-7.5 28.409,-14.629 35.859,-12.237c1.775,0.567 3.071,1.654 3.85,3.221c0.4,0.637 0.762,1.479 1.033,2.458l0.004,0.008c0.325,1.196 0.496,2.555 0.513,4.159l0.012,1l-3.833,1.704l-0.083,-2.221c-0.063,-1.608 -0.342,-2.946 -0.834,-3.987c-0.083,-0.155 -0.196,-0.363 -0.312,-0.555c-0.467,-0.916 -1.109,-1.441 -2.088,-1.754c-6.8,-2.196 -24.075,6.888 -33.35,11.763c-5.441,2.862 -7.071,3.675 -8.054,3.675" style="fill:#354552;fill-rule:nonzero;"/><path d="M210.104,84.215c-0.433,0 -0.721,-0.108 -0.996,-0.279l-1.25,-0.783l1.88,-3.125l0.966,0.6c1.638,-0.317 7.825,-3.059 13.817,-5.713c20.629,-9.15 39.692,-17.146 46.454,-14.587c1.783,0.737 3.079,2.041 3.879,3.887l0.538,1.229l-3.675,2.109l-0.717,-1.409c-0.429,-0.841 -1.012,-1.441 -1.779,-1.825c-6.392,-2.421 -30.008,7.904 -44.117,14.075c-10.304,4.504 -13.504,5.821 -15,5.821" style="fill:#354552;fill-rule:nonzero;"/><path d="M173.194,99.169l0.738,-3.592c0.037,-0.162 0.075,-0.329 0.125,-0.496l0.162,-0.537l0.475,-0.3c0.225,-0.138 0.225,-0.138 1.509,-0.45c11.441,-2.767 21.916,-5.779 31.133,-8.942c5.008,-1.587 10.05,-3.358 14.921,-5.071c11.833,-4.158 22.05,-7.75 28.708,-7.825c2.033,-0.016 3.908,0.338 5.379,1.067l2.684,1.325l-4.809,2.421l-0.633,-0.259c-0.904,-0.375 -1.929,-0.57 -3.129,-0.604l-0.484,-0.004c-6.104,0.054 -16.533,3.658 -27.57,7.475c-4.792,1.654 -9.742,3.371 -14.65,4.908c-9.03,3.05 -19.4,5.992 -30.792,8.73c-0.425,0.104 -0.742,0.179 -0.938,0.229l-2.829,1.925Z" style="fill:#354552;fill-rule:nonzero;"/><path d="M139.67,105.882l-1.105,-0.975c-0.133,-0.125 -0.241,-0.225 -0.345,-0.333l-0.963,-1.037l0.988,-1.017c0.404,-0.408 0.404,-0.408 2.525,-0.617c4.6,-0.446 18.608,-1.808 34.004,-5.237c9.241,-1.834 18.775,-4.35 27.991,-6.779c9.484,-2.496 18.438,-4.863 25.1,-5.896l0.025,-0.004c1.738,-0.238 3.4,-0.371 5.096,-0.392l7.388,-0.1l-9.246,3.912c-1.021,0.038 -2.113,0.121 -3.3,0.263l-0.308,-0.608c-0.092,0.012 -0.188,0.029 -0.275,0.045l0.087,0.63c-6.458,0.966 -15.3,3.254 -24.658,5.675c-9.075,2.345 -18.459,4.775 -27.554,6.554c-15.167,3.329 -29.113,4.675 -33.696,5.121c-0.475,0.041 -0.859,0.079 -1.129,0.108l-0.625,0.687Z" style="fill:#354552;fill-rule:nonzero;"/><path d="M180.555,117.731l-10.279,-1.204c-7.046,-0.829 -14.983,-1.312 -23.392,-1.829c-17.2,-1.046 -36.696,-2.233 -57.854,-6.725l-0.821,-0.254l0.742,-2.879c5.254,1.141 10.933,2.158 16.871,3.016l0.008,0.004c12.767,1.946 27.092,2.809 40.954,3.646c7.946,0.479 15.45,0.934 22.729,1.579l0.492,0.13c0.342,0.158 0.683,0.312 1.029,0.462l9.521,4.054Z" style="fill:#354552;fill-rule:nonzero;"/><path d="M123.214,108.01c-2.691,0 -5.137,-0.091 -7.271,-0.3l-0.887,-0.325l-6.779,-3.008l7.416,0.163c3.492,0.07 7.396,0.066 11.271,-0.025c18.004,0.154 43.821,-4.263 64.592,-7.83c4.675,-0.804 9.05,-1.554 12.962,-2.183l0.034,-0.008c0.525,-0.075 1.037,-0.125 1.546,-0.184l11.808,-1.287l-13.271,4.975l-0.258,-0.463c-0.125,0.021 -0.242,0.042 -0.363,0.059l0.084,0.458c-9.809,1.796 -55.863,9.958 -80.884,9.958" style="fill:#354552;fill-rule:nonzero;"/><path d="M125.412,109.382c-8.213,-0 -16.013,-0.346 -22.938,-1.188l-0.891,-0.275l-11.984,-4.112l12.617,1.229c6.829,0.666 13.954,1.041 21.167,1.125c16.041,0.325 33.437,-1.296 48.783,-2.713c2.958,-0.271 5.821,-0.537 8.575,-0.775l1.554,-0.121l12.829,-1.041l-14.754,4.558c-16.983,1.658 -36.95,3.313 -54.958,3.313" style="fill:#354552;fill-rule:nonzero;"/><path d="M144.035,111.473c-8.595,0 -17.308,-0.137 -25.983,-0.721c-2.267,-0.141 -4.512,-0.308 -6.75,-0.504c-1.221,-0.112 -2.421,-0.225 -3.617,-0.346c-2.391,-0.245 -4.75,-0.52 -7.066,-0.825c-2.313,-0.3 -4.592,-0.637 -6.804,-0.995l-0.925,-0.28l0.712,-2.879c6.858,1.121 14.208,1.959 21.833,2.504l0.005,0c13.912,1.038 28.7,0.859 41.754,0.7c2.908,-0.037 5.758,-0.066 8.533,-0.091l8.583,-0.063l-9.504,3.392c-2.941,0.004 -5.975,0.025 -9.071,0.05c-3.862,0.029 -7.77,0.058 -11.7,0.058" style="fill:#354552;fill-rule:nonzero;"/><path d="M157.146,128.319c-9.488,-1.542 -15.317,-2.842 -17.229,-3.267l-0.425,-0.091l-0.013,-0l-0.346,-0.071c-11.658,-2.567 -22.816,-5.796 -32.633,-9.425c-1.254,-0.454 -2.479,-0.925 -3.696,-1.396c-0.687,-0.271 -1.341,-0.546 -1.941,-0.792l1.137,-2.754c1.779,0.729 3.617,1.442 5.504,2.142c0.409,0.146 0.817,0.296 1.234,0.446c9.429,3.383 19.887,6.333 31.112,8.766l-0.004,0.005c0.2,0.029 0.421,0.079 0.687,0.137c1.825,0.4 7.384,1.625 16.63,3.121l0.737,0.204l4.021,1.079l-4.15,1.838l-0.625,0.058Z" style="fill:#949da4;fill-rule:nonzero;"/><path d="M166.273,131.017l-1.688,-0.234c-14.371,-2.004 -22.842,-4.137 -25.625,-4.837c-0.15,-0.038 -0.279,-0.067 -0.387,-0.096l-0.025,0.012l-0.617,-0.15c-8.654,-2.141 -16.921,-4.733 -24.429,-7.629c-7.213,-2.754 -13.759,-5.791 -19.275,-8.971l-1.538,-0.887l1.671,-1.796l0.746,-0.412l0.729,0.433c5.258,3.1 11.517,6.058 18.458,8.75c3.442,1.321 7.042,2.571 10.759,3.742c4.254,1.341 8.762,2.595 13.404,3.733l-0,0.012c0.317,0.046 0.662,0.13 1.029,0.225c2.729,0.68 11.025,2.746 25.092,4.688l0.675,0.204l1.554,0.5l-0.529,1.25l-0.004,1.463Z" style="fill:#949da4;fill-rule:nonzero;"/><path d="M147.82,128.974l-2.342,-0.425c-3.263,-0.771 -5.158,-1.287 -5.775,-1.454c-4.442,-1.183 -8.763,-2.525 -12.875,-3.967c-15.696,-5.425 -24.475,-11.183 -27.904,-13.746l-6.125,-4.579l8.512,2.35c5.85,4.475 14.809,8.954 25.209,12.713c3.941,1.396 8.358,2.783 13.275,4.096c0.087,0.02 0.195,0.05 0.35,0.087c0.87,0.238 3.558,0.963 8.212,1.996l0.342,0.121l-0.696,1.633l-0.183,1.175Z" style="fill:#949da4;fill-rule:nonzero;"/><path d="M139.95,127.993l-0.858,-0.262c-4.463,-1.388 -8.434,-2.85 -11.921,-4.325c-9.729,-4.046 -15.95,-8.254 -18.633,-11.134l-4.234,-4.537l6.779,2.487l0.525,0.38c1.93,2.179 7.617,6.362 18.005,10.595c3.112,1.246 6.587,2.475 10.425,3.642l5.883,1.788l-5.625,1.02l-0.346,0.346Z" style="fill:#949da4;fill-rule:nonzero;"/><path d="M141.92,129.312c-1.984,-0.688 -3.855,-1.405 -5.6,-2.134c-8.309,-3.404 -13.95,-7.166 -14.38,-9.746l-0.466,-2.82l4.579,2.208l-0,0.929c0.3,0.617 3.467,3.317 10.912,6.479c1.617,0.667 3.421,1.35 5.417,2.046l0.425,0.179l-0.004,0.013c0.029,0.012 0.062,0.021 0.092,0.033l-0.975,2.813Z" style="fill:#949da4;fill-rule:nonzero;"/><path d="M150.2,132.832c-2.654,-0.863 -4.842,-1.692 -6.567,-2.496c-3.512,-1.538 -6.208,-3.275 -5.92,-4.938c0.116,-0.687 0.766,-1.508 2.02,-1.446l0.646,0.167l8.134,4.271l-2.396,-0.254c1.166,0.475 2.546,0.983 4.171,1.516l0.95,0.392l-1.038,2.788Z" style="fill:#949da4;fill-rule:nonzero;"/><path d="M161.443,137.425c-1.675,-0.383 -2.917,-0.7 -3.842,-0.966l-0.017,0.037c-0.116,-0.05 -0.225,-0.1 -0.333,-0.146c-0.929,-0.287 -1.488,-0.525 -1.829,-0.741c-1.567,-0.596 -1.663,-0.996 -1.767,-1.425l-0.212,-0.892l0.704,-0.6c0.771,-0.65 1.571,-0.346 3.312,0.396l0.25,0.129c0.825,0.25 1.946,0.558 3.409,0.9l0.933,0.363l-0.008,0.033c0.02,0.004 0.041,0.008 0.066,0.017l-0.666,2.895Z" style="fill:#949da4;fill-rule:nonzero;"/><path d="M175.22,145.14l-2.904,-1.475c-1.775,-1.025 -3.171,-1.825 -2.791,-3.27c0.379,-1.438 2.02,-1.455 3.762,-1.471l0.258,-0l9.021,3.191l-6.4,0.155c0.138,0.075 0.267,0.15 0.392,0.216l-1.338,2.654Z" style="fill:#949da4;fill-rule:nonzero;"/><path d="M193.547,152.835l-1.417,-0.542c-2.312,-1.279 -3.783,-2.196 -4.829,-2.988c-1.141,-0.862 -2.316,-1.937 -2.35,-3.337c-0.012,-0.571 0.167,-1.404 1.088,-2.175l0.625,-0.521l4.521,1.342l-2.067,1.791c-0.05,0.046 -0.071,0.071 -0.071,0.071c0.196,0.125 1.308,1.167 5.75,3.667l-1.25,2.692Z" style="fill:#949da4;fill-rule:nonzero;"/><path d="M226.767,162.605l-15.325,-3.942c-4.967,-2.45 -8.117,-4.467 -9.921,-6.271c-1.188,-1.196 -1.85,-2.354 -2.021,-3.542l-0.308,-2.116l4.275,0.904l0.166,1.021c0.305,1.829 3.775,4.391 10.325,7.621l12.809,6.325Z" style="fill:#949da4;fill-rule:nonzero;"/><path d="M247.209,164.842l-15.237,-1.933c-8.95,-3.362 -14.971,-6.971 -17.904,-10.717l-0.225,-0.362l-1.121,-2.454l4.475,0.575l0.375,0.487c2.587,3.379 8.504,6.8 17.104,9.892l12.533,4.512Z" style="fill:#949da4;fill-rule:nonzero;"/><path d="M256.092,164.31l-0.171,-0.03c-11.391,-1.991 -20.883,-5.766 -27.437,-10.904l-3.392,-2.662l6.008,-0.009l0.417,0.325c4.304,3.392 12.333,7.892 26.138,10.105l12.208,1.962l-11.771,1.071c-0.6,0.05 -1.212,0.092 -1.825,0.129l-0.175,0.013Z" style="fill:#949da4;fill-rule:nonzero;"/><path d="M274.513,160.261c-11.596,-0 -22.371,-2.559 -32.063,-7.621l-4.092,-2.138l4.567,-0.654c0.363,-0.054 0.729,-0.104 1.096,-0.171l0.496,-0.087l0.446,0.233c9.329,4.875 19.845,7.196 31.187,6.975l1.021,-0.041c0.396,-0.017 0.758,-0.038 1.125,-0.059l9.912,-0.683l-11.237,4.204c-0.821,0.029 -1.646,0.042 -2.458,0.042" style="fill:#949da4;fill-rule:nonzero;"/><path d="M278.276,153.608c-7.491,-0 -15.05,-1.263 -22.846,-3.792l-4.37,-1.421l5.841,-1.908l0.471,0.154c12.146,3.9 23.679,4.5 35.254,1.85l7.954,-2.079l-7.675,5.579c-4.87,1.075 -9.733,1.617 -14.629,1.617" style="fill:#949da4;fill-rule:nonzero;"/><path d="M279.619,146.027c-3.913,0 -7.95,-0.3 -12.138,-0.9l-4.896,-0.704l4.467,-2.116c0.308,-0.146 0.629,-0.296 0.95,-0.463l0.417,-0.217l0.462,0.067c13.167,1.808 24.754,0.471 35.442,-4.071l5.571,-2.366l-4.846,5.875l-0.342,0.137c-7.846,3.179 -16.133,4.758 -25.087,4.758" style="fill:#949da4;fill-rule:nonzero;"/><path d="M273.54,138.809l3.675,-2.821c0.233,-0.183 0.475,-0.383 0.708,-0.579l0.392,-0.334l0.517,-0.02c13.033,-0.517 24.012,-3.667 33.562,-9.634l5.121,-3.196l-3.771,6.492l-0.337,0.204c-10.1,6.1 -21.629,9.279 -35.238,9.734l-4.629,0.154Z" style="fill:#949da4;fill-rule:nonzero;"/><path d="M282.475,131.643l3.309,-4.304l0.521,-0.112c12.75,-2.68 23.129,-7.588 31.725,-15.005l4.266,-3.683l-2.408,6.713l-0.296,0.25c-9.096,7.629 -19.975,12.65 -33.242,15.354l-3.875,0.787Z" style="fill:#949da4;fill-rule:nonzero;"/><path d="M288.371,123.831l2.317,-4.621l0.562,-0.217c11.563,-4.35 21.188,-10.641 28.625,-18.687c0.513,-0.554 1.009,-1.129 1.5,-1.704l3.717,-4.317l-1.342,6.954l-0.275,0.317c-8.079,9.15 -18.691,16.2 -31.545,20.962l-3.559,1.313Z" style="fill:#949da4;fill-rule:nonzero;"/><path d="M292.27,115.88l1.112,-4.575l0.55,-0.3c9.875,-5.354 18.083,-12.067 24.408,-19.95c1.255,-1.567 2.438,-3.179 3.617,-4.933l2.625,-3.896l0.108,6.079l-0.258,0.379c-7.158,10.454 -16.996,19.083 -29.246,25.638l-2.916,1.558Z" style="fill:#949da4;fill-rule:nonzero;"/><path d="M294.048,108.425l0.108,-4.337l0.612,-0.429c8.871,-6.259 16.196,-13.663 21.763,-22.004c1.517,-2.271 2.937,-4.692 4.229,-7.192l1.946,-3.767l0.833,4.154c0.046,0.205 0.079,0.425 0.109,0.642l0.075,0.483l-0.192,0.696c-6.204,11.725 -15.313,21.838 -27.063,30.059l-2.42,1.695Z" style="fill:#949da4;fill-rule:nonzero;"/><path d="M294.328,101.52l-0.866,-3.845l0.7,-0.609c10.721,-9.35 18.65,-20.283 23.554,-32.491l1.296,-3.234l1.979,4.438l-0.233,0.571c-5.163,12.6 -13.409,23.875 -24.517,33.512l-1.913,1.658Z" style="fill:#949da4;fill-rule:nonzero;"/><path d="M292.693,95.877l-2.159,-2.217l0.817,-1.35c10.125,-10.313 17.537,-22.375 21.433,-34.875l0.704,-2.263l2.746,2.63l-0.187,0.95c-4.134,12.954 -11.821,25.404 -22.242,35.995l-1.112,1.13Z" style="fill:#949da4;fill-rule:nonzero;"/><path d="M288.677,92.475l-3.559,-1.221l1.484,-1.679c12.333,-14.046 17.304,-27.204 19.308,-35.767l0.329,-1.408l1.413,0.283c0.171,0.038 0.333,0.084 0.491,0.125l1.367,0.396l-0.137,1.438c-2.15,8.929 -7.367,22.608 -20.03,37.066l-0.666,0.767Z" style="fill:#949da4;fill-rule:nonzero;"/><path d="M282.732,91.177l-4.146,-0.092l1.642,-2.375c9.079,-11.283 15.166,-23.912 16.695,-34.65l0.155,-1.066l3.845,-0.7l-0.32,2.062c-1.042,6.709 -4.684,20.334 -17.4,36.229l-0.471,0.592Z" style="fill:#949da4;fill-rule:nonzero;"/><path d="M270.248,92.369l2.15,-2.908c9.908,-13.4 13.217,-24.942 13.012,-31.271l-0.033,-0.992l3.921,-1.696l0.021,2.221c0.075,9.092 -5.067,21.571 -13.75,33.384l-0.367,0.491l-4.954,0.771Z" style="fill:#949da4;fill-rule:nonzero;"/><path d="M261.089,94.62l2.058,-3.117c8.067,-12.221 9.754,-21.546 7.85,-25.371l-0.621,-1.25l3.663,-2.112l0.812,1.433c0.179,0.408 0.325,0.742 0.429,1.108c1.759,6.159 -1.587,16.734 -8.729,27.604l-0.325,0.492l-5.137,1.213Z" style="fill:#949da4;fill-rule:nonzero;"/><path d="M250.794,97.626l1.638,-3.091c3.491,-6.605 4.816,-12.246 3.629,-15.475c-0.463,-1.238 -1.263,-2.071 -2.458,-2.546l-3.055,-1.209l5.134,-2.612l0.662,0.329c1.875,0.929 3.154,2.438 3.8,4.475c1.35,4.242 -0.079,10.675 -4.05,18.129l-0.287,0.538l-5.013,1.462Z" style="fill:#949da4;fill-rule:nonzero;"/><path d="M239.315,100.902l0.68,-2.508c1.062,-3.934 0.875,-6.829 -0.555,-8.609c-1.425,-1.775 -4.204,-2.575 -8.295,-2.375l-8.18,0.392l10.013,-4.208c6.008,-0.075 9.833,1.871 11.3,5.8c0.929,2.5 0.854,5.679 -0.213,9.454l-0.225,0.783l-4.525,1.271Z" style="fill:#949da4;fill-rule:nonzero;"/><path d="M208.22,122.065l-10.817,-0.342c-0.7,-0.021 -1.404,-0.041 -2.095,-0.083l-0.371,-0.063c-5.467,-1.729 -9.179,-2.595 -10.521,-2.887c-4.196,-0.875 -8.783,-1.571 -14.129,-2.163l-0.434,-0.112l-9.016,-4.167l8.691,0.838c6.609,0.637 11.9,1.391 16.65,2.366l0.075,0.021c1.609,0.342 5.825,1.317 12.08,3.363l9.887,3.229Z" style="fill:#949da4;fill-rule:nonzero;"/><path d="M225.965,104.556l-0.429,-1.354c-1.025,-3.242 -4.308,-7.309 -20.904,-5.209l-13.167,1.667l14.85,-5.379c8.804,-1.059 20.808,-1.429 23.446,7.7l0.425,1.462l-4.221,1.113Z" style="fill:#949da4;fill-rule:nonzero;"/><path d="M212.838,111.6l-0.645,-0.717c-0.642,-0.704 -1.388,-1.338 -2.246,-1.9c-0.196,-0.079 -0.367,-0.188 -0.513,-0.321c-3.721,-2.204 -9.437,-3.237 -17.404,-3.142l-0.008,0c-3.025,0.017 -6.538,0.18 -11.054,0.513l-11.859,0.875l13.192,-4.354c15.471,-1.217 24.433,-0.296 29.996,3.079l2.641,1.6l-0.287,0.108c0.387,0.35 0.762,0.713 1.104,1.092l1.533,1.692l-4.45,1.475Z" style="fill:#949da4;fill-rule:nonzero;"/><path d="M198.735,115.473l-0.467,-0.187c-5,-1.992 -11.387,-3.146 -20.091,-3.625c-3.667,-0.2 -7.796,-0.292 -13.375,-0.3l-8.059,-0.009l8.984,-3.312c14.7,-0.075 26.308,0.596 34.983,4.1l4.05,1.637l-6.025,1.696Z" style="fill:#949da4;fill-rule:nonzero;"/></g></svg>